G04 #@! TF.GenerationSoftware,KiCad,Pcbnew,(2017-01-24 revision 0b6147e)-makepkg*
G04 #@! TF.CreationDate,2017-09-23T09:01:55-07:00*
G04 #@! TF.ProjectId,SpartanMiniProtoShield,5370617274616E4D696E6950726F746F,rev?*
G04 #@! TF.FileFunction,Copper,L1,Top,Signal*
G04 #@! TF.FilePolarity,Positive*
%FSLAX46Y46*%
G04 Gerber Fmt 4.6, Leading zero omitted, Abs format (unit mm)*
G04 Created by KiCad (PCBNEW (2017-01-24 revision 0b6147e)-makepkg) date 09/23/17 09:01:55*
%MOMM*%
%LPD*%
G01*
G04 APERTURE LIST*
%ADD10C,0.100000*%
%ADD11O,1.600000X1.600000*%
%ADD12O,1.727200X1.727200*%
%ADD13R,1.727200X1.727200*%
%ADD14C,1.727200*%
%ADD15C,0.508000*%
%ADD16C,0.635000*%
%ADD17C,0.254000*%
%ADD18C,0.381000*%
G04 APERTURE END LIST*
D10*
D11*
X118880000Y-126300000D03*
X116340000Y-126300000D03*
X113800000Y-126300000D03*
X111260000Y-126300000D03*
X108720000Y-126300000D03*
X106180000Y-126300000D03*
X103640000Y-126300000D03*
X101100000Y-126300000D03*
X98560000Y-126300000D03*
X96020000Y-126300000D03*
X93480000Y-126300000D03*
X90940000Y-126300000D03*
X88400000Y-126300000D03*
X85860000Y-126300000D03*
X83320000Y-126300000D03*
X80780000Y-126300000D03*
X78240000Y-126300000D03*
X75700000Y-126300000D03*
X73160000Y-126300000D03*
X70620000Y-126300000D03*
X68080000Y-126300000D03*
X65540000Y-126300000D03*
X63000000Y-126300000D03*
X60460000Y-126300000D03*
X57920000Y-126300000D03*
X55380000Y-126300000D03*
X52840000Y-126300000D03*
X50300000Y-126300000D03*
X47760000Y-126300000D03*
X45220000Y-126300000D03*
X42680000Y-126300000D03*
X40140000Y-126300000D03*
X37600000Y-126300000D03*
X35060000Y-126300000D03*
X118880000Y-123760000D03*
X116340000Y-123760000D03*
X113800000Y-123760000D03*
X111260000Y-123760000D03*
X108720000Y-123760000D03*
X106180000Y-123760000D03*
X103640000Y-123760000D03*
X101100000Y-123760000D03*
X98560000Y-123760000D03*
X96020000Y-123760000D03*
X93480000Y-123760000D03*
X90940000Y-123760000D03*
X88400000Y-123760000D03*
X85860000Y-123760000D03*
X83320000Y-123760000D03*
X80780000Y-123760000D03*
X78240000Y-123760000D03*
X75700000Y-123760000D03*
X73160000Y-123760000D03*
X70620000Y-123760000D03*
X68080000Y-123760000D03*
X65540000Y-123760000D03*
X63000000Y-123760000D03*
X60460000Y-123760000D03*
X57920000Y-123760000D03*
X55380000Y-123760000D03*
X52840000Y-123760000D03*
X50300000Y-123760000D03*
X47760000Y-123760000D03*
X45220000Y-123760000D03*
X42680000Y-123760000D03*
X40140000Y-123760000D03*
X37600000Y-123760000D03*
X35060000Y-123760000D03*
X118880000Y-121220000D03*
X116340000Y-121220000D03*
X113800000Y-121220000D03*
X111260000Y-121220000D03*
X108720000Y-121220000D03*
X106180000Y-121220000D03*
X103640000Y-121220000D03*
X101100000Y-121220000D03*
X98560000Y-121220000D03*
X96020000Y-121220000D03*
X93480000Y-121220000D03*
X90940000Y-121220000D03*
X88400000Y-121220000D03*
X85860000Y-121220000D03*
X83320000Y-121220000D03*
X80780000Y-121220000D03*
X78240000Y-121220000D03*
X75700000Y-121220000D03*
X73160000Y-121220000D03*
X70620000Y-121220000D03*
X68080000Y-121220000D03*
X65540000Y-121220000D03*
X63000000Y-121220000D03*
X60460000Y-121220000D03*
X57920000Y-121220000D03*
X55380000Y-121220000D03*
X52840000Y-121220000D03*
X50300000Y-121220000D03*
X47760000Y-121220000D03*
X45220000Y-121220000D03*
X42680000Y-121220000D03*
X40140000Y-121220000D03*
X37600000Y-121220000D03*
X35060000Y-121220000D03*
X118880000Y-118680000D03*
X116340000Y-118680000D03*
X113800000Y-118680000D03*
X111260000Y-118680000D03*
X108720000Y-118680000D03*
X106180000Y-118680000D03*
X103640000Y-118680000D03*
X101100000Y-118680000D03*
X98560000Y-118680000D03*
X96020000Y-118680000D03*
X93480000Y-118680000D03*
X90940000Y-118680000D03*
X88400000Y-118680000D03*
X85860000Y-118680000D03*
X83320000Y-118680000D03*
X80780000Y-118680000D03*
X78240000Y-118680000D03*
X75700000Y-118680000D03*
X73160000Y-118680000D03*
X70620000Y-118680000D03*
X68080000Y-118680000D03*
X65540000Y-118680000D03*
X63000000Y-118680000D03*
X60460000Y-118680000D03*
X57920000Y-118680000D03*
X55380000Y-118680000D03*
X52840000Y-118680000D03*
X50300000Y-118680000D03*
X47760000Y-118680000D03*
X45220000Y-118680000D03*
X42680000Y-118680000D03*
X40140000Y-118680000D03*
X37600000Y-118680000D03*
X35060000Y-118680000D03*
X118880000Y-116140000D03*
X116340000Y-116140000D03*
X113800000Y-116140000D03*
X111260000Y-116140000D03*
X108720000Y-116140000D03*
X106180000Y-116140000D03*
X103640000Y-116140000D03*
X101100000Y-116140000D03*
X98560000Y-116140000D03*
X96020000Y-116140000D03*
X93480000Y-116140000D03*
X90940000Y-116140000D03*
X88400000Y-116140000D03*
X85860000Y-116140000D03*
X83320000Y-116140000D03*
X80780000Y-116140000D03*
X78240000Y-116140000D03*
X75700000Y-116140000D03*
X73160000Y-116140000D03*
X70620000Y-116140000D03*
X68080000Y-116140000D03*
X65540000Y-116140000D03*
X63000000Y-116140000D03*
X60460000Y-116140000D03*
X57920000Y-116140000D03*
X55380000Y-116140000D03*
X52840000Y-116140000D03*
X50300000Y-116140000D03*
X47760000Y-116140000D03*
X45220000Y-116140000D03*
X42680000Y-116140000D03*
X40140000Y-116140000D03*
X37600000Y-116140000D03*
X35060000Y-116140000D03*
X118880000Y-113600000D03*
X116340000Y-113600000D03*
X113800000Y-113600000D03*
X111260000Y-113600000D03*
X108720000Y-113600000D03*
X106180000Y-113600000D03*
X103640000Y-113600000D03*
X101100000Y-113600000D03*
X98560000Y-113600000D03*
X96020000Y-113600000D03*
X93480000Y-113600000D03*
X90940000Y-113600000D03*
X88400000Y-113600000D03*
X85860000Y-113600000D03*
X83320000Y-113600000D03*
X80780000Y-113600000D03*
X78240000Y-113600000D03*
X75700000Y-113600000D03*
X73160000Y-113600000D03*
X70620000Y-113600000D03*
X68080000Y-113600000D03*
X65540000Y-113600000D03*
X63000000Y-113600000D03*
X60460000Y-113600000D03*
X57920000Y-113600000D03*
X55380000Y-113600000D03*
X52840000Y-113600000D03*
X50300000Y-113600000D03*
X47760000Y-113600000D03*
X45220000Y-113600000D03*
X42680000Y-113600000D03*
X40140000Y-113600000D03*
X37600000Y-113600000D03*
X35060000Y-113600000D03*
X118880000Y-111060000D03*
X116340000Y-111060000D03*
X113800000Y-111060000D03*
X111260000Y-111060000D03*
X108720000Y-111060000D03*
X106180000Y-111060000D03*
X103640000Y-111060000D03*
X101100000Y-111060000D03*
X98560000Y-111060000D03*
X96020000Y-111060000D03*
X93480000Y-111060000D03*
X90940000Y-111060000D03*
X88400000Y-111060000D03*
X85860000Y-111060000D03*
X83320000Y-111060000D03*
X80780000Y-111060000D03*
X78240000Y-111060000D03*
X75700000Y-111060000D03*
X73160000Y-111060000D03*
X70620000Y-111060000D03*
X68080000Y-111060000D03*
X65540000Y-111060000D03*
X63000000Y-111060000D03*
X60460000Y-111060000D03*
X57920000Y-111060000D03*
X55380000Y-111060000D03*
X52840000Y-111060000D03*
X50300000Y-111060000D03*
X47760000Y-111060000D03*
X45220000Y-111060000D03*
X42680000Y-111060000D03*
X40140000Y-111060000D03*
X37600000Y-111060000D03*
X35060000Y-111060000D03*
X118880000Y-108520000D03*
X116340000Y-108520000D03*
X113800000Y-108520000D03*
X111260000Y-108520000D03*
X108720000Y-108520000D03*
X106180000Y-108520000D03*
X103640000Y-108520000D03*
X101100000Y-108520000D03*
X98560000Y-108520000D03*
X96020000Y-108520000D03*
X93480000Y-108520000D03*
X90940000Y-108520000D03*
X88400000Y-108520000D03*
X85860000Y-108520000D03*
X83320000Y-108520000D03*
X80780000Y-108520000D03*
X78240000Y-108520000D03*
X75700000Y-108520000D03*
X73160000Y-108520000D03*
X70620000Y-108520000D03*
X68080000Y-108520000D03*
X65540000Y-108520000D03*
X63000000Y-108520000D03*
X60460000Y-108520000D03*
X57920000Y-108520000D03*
X55380000Y-108520000D03*
X52840000Y-108520000D03*
X50300000Y-108520000D03*
X47760000Y-108520000D03*
X45220000Y-108520000D03*
X42680000Y-108520000D03*
X40140000Y-108520000D03*
X37600000Y-108520000D03*
X35060000Y-108520000D03*
X118880000Y-105980000D03*
X116340000Y-105980000D03*
X113800000Y-105980000D03*
X111260000Y-105980000D03*
X108720000Y-105980000D03*
X106180000Y-105980000D03*
X103640000Y-105980000D03*
X101100000Y-105980000D03*
X98560000Y-105980000D03*
X96020000Y-105980000D03*
X93480000Y-105980000D03*
X90940000Y-105980000D03*
X88400000Y-105980000D03*
X85860000Y-105980000D03*
X83320000Y-105980000D03*
X80780000Y-105980000D03*
X78240000Y-105980000D03*
X75700000Y-105980000D03*
X73160000Y-105980000D03*
X70620000Y-105980000D03*
X68080000Y-105980000D03*
X65540000Y-105980000D03*
X63000000Y-105980000D03*
X60460000Y-105980000D03*
X57920000Y-105980000D03*
X55380000Y-105980000D03*
X52840000Y-105980000D03*
X50300000Y-105980000D03*
X47760000Y-105980000D03*
X45220000Y-105980000D03*
X42680000Y-105980000D03*
X40140000Y-105980000D03*
X37600000Y-105980000D03*
X35060000Y-105980000D03*
X118880000Y-103440000D03*
X116340000Y-103440000D03*
X113800000Y-103440000D03*
X111260000Y-103440000D03*
X108720000Y-103440000D03*
X106180000Y-103440000D03*
X103640000Y-103440000D03*
X101100000Y-103440000D03*
X98560000Y-103440000D03*
X96020000Y-103440000D03*
X93480000Y-103440000D03*
X90940000Y-103440000D03*
X88400000Y-103440000D03*
X85860000Y-103440000D03*
X83320000Y-103440000D03*
X80780000Y-103440000D03*
X78240000Y-103440000D03*
X75700000Y-103440000D03*
X73160000Y-103440000D03*
X70620000Y-103440000D03*
X68080000Y-103440000D03*
X65540000Y-103440000D03*
X63000000Y-103440000D03*
X60460000Y-103440000D03*
X57920000Y-103440000D03*
X55380000Y-103440000D03*
X52840000Y-103440000D03*
X50300000Y-103440000D03*
X47760000Y-103440000D03*
X45220000Y-103440000D03*
X42680000Y-103440000D03*
X40140000Y-103440000D03*
X37600000Y-103440000D03*
X35060000Y-103440000D03*
X118880000Y-100900000D03*
X116340000Y-100900000D03*
X113800000Y-100900000D03*
X111260000Y-100900000D03*
X108720000Y-100900000D03*
X106180000Y-100900000D03*
X103640000Y-100900000D03*
X101100000Y-100900000D03*
X98560000Y-100900000D03*
X96020000Y-100900000D03*
X93480000Y-100900000D03*
X90940000Y-100900000D03*
X88400000Y-100900000D03*
X85860000Y-100900000D03*
X83320000Y-100900000D03*
X80780000Y-100900000D03*
X78240000Y-100900000D03*
X75700000Y-100900000D03*
X73160000Y-100900000D03*
X70620000Y-100900000D03*
X68080000Y-100900000D03*
X65540000Y-100900000D03*
X63000000Y-100900000D03*
X60460000Y-100900000D03*
X57920000Y-100900000D03*
X55380000Y-100900000D03*
X52840000Y-100900000D03*
X50300000Y-100900000D03*
X47760000Y-100900000D03*
X45220000Y-100900000D03*
X42680000Y-100900000D03*
X40140000Y-100900000D03*
X37600000Y-100900000D03*
X35060000Y-100900000D03*
X118880000Y-98360000D03*
X116340000Y-98360000D03*
X113800000Y-98360000D03*
X111260000Y-98360000D03*
X108720000Y-98360000D03*
X106180000Y-98360000D03*
X103640000Y-98360000D03*
X101100000Y-98360000D03*
X98560000Y-98360000D03*
X96020000Y-98360000D03*
X93480000Y-98360000D03*
X90940000Y-98360000D03*
X88400000Y-98360000D03*
X85860000Y-98360000D03*
X83320000Y-98360000D03*
X80780000Y-98360000D03*
X78240000Y-98360000D03*
X75700000Y-98360000D03*
X73160000Y-98360000D03*
X70620000Y-98360000D03*
X68080000Y-98360000D03*
X65540000Y-98360000D03*
X63000000Y-98360000D03*
X60460000Y-98360000D03*
X57920000Y-98360000D03*
X55380000Y-98360000D03*
X52840000Y-98360000D03*
X50300000Y-98360000D03*
X47760000Y-98360000D03*
X45220000Y-98360000D03*
X42680000Y-98360000D03*
X40140000Y-98360000D03*
X37600000Y-98360000D03*
X35060000Y-98360000D03*
X118880000Y-95820000D03*
X116340000Y-95820000D03*
X113800000Y-95820000D03*
X111260000Y-95820000D03*
X108720000Y-95820000D03*
X106180000Y-95820000D03*
X103640000Y-95820000D03*
X101100000Y-95820000D03*
X98560000Y-95820000D03*
X96020000Y-95820000D03*
X93480000Y-95820000D03*
X90940000Y-95820000D03*
X88400000Y-95820000D03*
X85860000Y-95820000D03*
X83320000Y-95820000D03*
X80780000Y-95820000D03*
X78240000Y-95820000D03*
X75700000Y-95820000D03*
X73160000Y-95820000D03*
X70620000Y-95820000D03*
X68080000Y-95820000D03*
X65540000Y-95820000D03*
X63000000Y-95820000D03*
X60460000Y-95820000D03*
X57920000Y-95820000D03*
X55380000Y-95820000D03*
X52840000Y-95820000D03*
X50300000Y-95820000D03*
X47760000Y-95820000D03*
X45220000Y-95820000D03*
X42680000Y-95820000D03*
X40140000Y-95820000D03*
X37600000Y-95820000D03*
X35060000Y-95820000D03*
X118880000Y-93280000D03*
X116340000Y-93280000D03*
X113800000Y-93280000D03*
X111260000Y-93280000D03*
X108720000Y-93280000D03*
X106180000Y-93280000D03*
X103640000Y-93280000D03*
X101100000Y-93280000D03*
X98560000Y-93280000D03*
X96020000Y-93280000D03*
X93480000Y-93280000D03*
X90940000Y-93280000D03*
X88400000Y-93280000D03*
X85860000Y-93280000D03*
X83320000Y-93280000D03*
X80780000Y-93280000D03*
X78240000Y-93280000D03*
X75700000Y-93280000D03*
X73160000Y-93280000D03*
X70620000Y-93280000D03*
X68080000Y-93280000D03*
X65540000Y-93280000D03*
X63000000Y-93280000D03*
X60460000Y-93280000D03*
X57920000Y-93280000D03*
X55380000Y-93280000D03*
X52840000Y-93280000D03*
X50300000Y-93280000D03*
X47760000Y-93280000D03*
X45220000Y-93280000D03*
X42680000Y-93280000D03*
X40140000Y-93280000D03*
X37600000Y-93280000D03*
X35060000Y-93280000D03*
X118880000Y-90740000D03*
X116340000Y-90740000D03*
X113800000Y-90740000D03*
X111260000Y-90740000D03*
X108720000Y-90740000D03*
X106180000Y-90740000D03*
X103640000Y-90740000D03*
X101100000Y-90740000D03*
X98560000Y-90740000D03*
X96020000Y-90740000D03*
X93480000Y-90740000D03*
X90940000Y-90740000D03*
X88400000Y-90740000D03*
X85860000Y-90740000D03*
X83320000Y-90740000D03*
X80780000Y-90740000D03*
X78240000Y-90740000D03*
X75700000Y-90740000D03*
X73160000Y-90740000D03*
X70620000Y-90740000D03*
X68080000Y-90740000D03*
X65540000Y-90740000D03*
X63000000Y-90740000D03*
X60460000Y-90740000D03*
X57920000Y-90740000D03*
X55380000Y-90740000D03*
X52840000Y-90740000D03*
X50300000Y-90740000D03*
X47760000Y-90740000D03*
X45220000Y-90740000D03*
X42680000Y-90740000D03*
X40140000Y-90740000D03*
X37600000Y-90740000D03*
D12*
X84503500Y-134543500D03*
D13*
X84503500Y-132003500D03*
D12*
X81963500Y-134543500D03*
X81963500Y-132003500D03*
X79423500Y-134543500D03*
X79423500Y-132003500D03*
X76883500Y-134543500D03*
X76883500Y-132003500D03*
X74343500Y-134543500D03*
X74343500Y-132003500D03*
X71803500Y-134543500D03*
D14*
X71803500Y-132003500D03*
X94803500Y-132003500D03*
D12*
X94803500Y-134543500D03*
X97343500Y-132003500D03*
X97343500Y-134543500D03*
X99883500Y-132003500D03*
X99883500Y-134543500D03*
X102423500Y-132003500D03*
X102423500Y-134543500D03*
X104963500Y-132003500D03*
X104963500Y-134543500D03*
D13*
X107503500Y-132003500D03*
D12*
X107503500Y-134543500D03*
D14*
X67696500Y-84996500D03*
D12*
X67696500Y-82456500D03*
X65156500Y-84996500D03*
X65156500Y-82456500D03*
X62616500Y-84996500D03*
X62616500Y-82456500D03*
X60076500Y-84996500D03*
X60076500Y-82456500D03*
X57536500Y-84996500D03*
X57536500Y-82456500D03*
D13*
X54996500Y-84996500D03*
D12*
X54996500Y-82456500D03*
D14*
X90696500Y-84996500D03*
D12*
X90696500Y-82456500D03*
X88156500Y-84996500D03*
X88156500Y-82456500D03*
X85616500Y-84996500D03*
X85616500Y-82456500D03*
X83076500Y-84996500D03*
X83076500Y-82456500D03*
X80536500Y-84996500D03*
X80536500Y-82456500D03*
D13*
X77996500Y-84996500D03*
D12*
X77996500Y-82456500D03*
X100996500Y-82456500D03*
D13*
X100996500Y-84996500D03*
D12*
X103536500Y-82456500D03*
X103536500Y-84996500D03*
X106076500Y-82456500D03*
X106076500Y-84996500D03*
X108616500Y-82456500D03*
X108616500Y-84996500D03*
X111156500Y-82456500D03*
X111156500Y-84996500D03*
X113696500Y-82456500D03*
D14*
X113696500Y-84996500D03*
D11*
X35060000Y-90740000D03*
X118880000Y-128840000D03*
X116340000Y-128840000D03*
X113800000Y-128840000D03*
X111260000Y-128840000D03*
X108720000Y-128840000D03*
X106180000Y-128840000D03*
X103640000Y-128840000D03*
X101100000Y-128840000D03*
X98560000Y-128840000D03*
X96020000Y-128840000D03*
X93480000Y-128840000D03*
X90940000Y-128840000D03*
X88400000Y-128840000D03*
X85860000Y-128840000D03*
X83320000Y-128840000D03*
X80780000Y-128840000D03*
X78240000Y-128840000D03*
X75700000Y-128840000D03*
X73160000Y-128840000D03*
X70620000Y-128840000D03*
X68080000Y-128840000D03*
X65540000Y-128840000D03*
X63000000Y-128840000D03*
X60460000Y-128840000D03*
X57920000Y-128840000D03*
X55380000Y-128840000D03*
X52840000Y-128840000D03*
X50300000Y-128840000D03*
X47760000Y-128840000D03*
X45220000Y-128840000D03*
X42680000Y-128840000D03*
X40140000Y-128840000D03*
X37600000Y-128840000D03*
X35060000Y-128840000D03*
X35060000Y-88200000D03*
X37600000Y-88200000D03*
X40140000Y-88200000D03*
X42680000Y-88200000D03*
X45220000Y-88200000D03*
X47760000Y-88200000D03*
X50300000Y-88200000D03*
X52840000Y-88200000D03*
X55380000Y-88200000D03*
X57920000Y-88200000D03*
X60460000Y-88200000D03*
X63000000Y-88200000D03*
X65540000Y-88200000D03*
X68080000Y-88200000D03*
X70620000Y-88200000D03*
X73160000Y-88200000D03*
X75700000Y-88200000D03*
X78240000Y-88200000D03*
X80780000Y-88200000D03*
X83320000Y-88200000D03*
X85860000Y-88200000D03*
X88400000Y-88200000D03*
X90940000Y-88200000D03*
X93480000Y-88200000D03*
X96020000Y-88200000D03*
X98560000Y-88200000D03*
X101100000Y-88200000D03*
X103640000Y-88200000D03*
X106180000Y-88200000D03*
X108720000Y-88200000D03*
X111260000Y-88200000D03*
X113800000Y-88200000D03*
X116340000Y-88200000D03*
X118880000Y-88200000D03*
D15*
X102420000Y-127560000D02*
X115060000Y-127560000D01*
X115060000Y-127560000D02*
X116340000Y-128840000D01*
X101140000Y-128840000D02*
X102420000Y-127560000D01*
X101100000Y-128840000D02*
X101140000Y-128840000D01*
D16*
X85460000Y-136750000D02*
X76550000Y-136750000D01*
X76550000Y-136750000D02*
X74343500Y-134543500D01*
X87140000Y-135070000D02*
X85460000Y-136750000D01*
X87140000Y-130860000D02*
X87140000Y-135070000D01*
X85860000Y-129580000D02*
X87140000Y-130860000D01*
X85860000Y-128840000D02*
X85860000Y-129580000D01*
X98300000Y-136040000D02*
X109140000Y-136040000D01*
X109140000Y-136040000D02*
X116340000Y-128840000D01*
X97343500Y-135083500D02*
X98300000Y-136040000D01*
X97343500Y-134543500D02*
X97343500Y-135083500D01*
X68080000Y-128840000D02*
X65540000Y-128840000D01*
X74343500Y-132003500D02*
X74343500Y-134543500D01*
X97343500Y-132003500D02*
X97546500Y-132003500D01*
X97343500Y-132003500D02*
X97343500Y-134543500D01*
X85860000Y-88200000D02*
X85860000Y-87293000D01*
X85860000Y-87293000D02*
X88156500Y-84996500D01*
X65540000Y-88200000D02*
X68080000Y-88200000D01*
X65156500Y-84996500D02*
X65156500Y-87816500D01*
X65156500Y-87816500D02*
X65540000Y-88200000D01*
X65156500Y-82456500D02*
X65156500Y-84996500D01*
X88156500Y-82456500D02*
X88156500Y-84996500D01*
X115840000Y-86570000D02*
X116340000Y-87070000D01*
X116340000Y-87070000D02*
X116340000Y-88200000D01*
X112450000Y-86570000D02*
X115840000Y-86570000D01*
X111156500Y-85276500D02*
X112450000Y-86570000D01*
X111156500Y-84996500D02*
X111156500Y-85276500D01*
X111156500Y-82456500D02*
X111156500Y-84996500D01*
D17*
X84503500Y-132003500D02*
X84503500Y-130023500D01*
X84503500Y-130023500D02*
X83320000Y-128840000D01*
X81963500Y-132003500D02*
X81963500Y-130023500D01*
X81963500Y-130023500D02*
X80780000Y-128840000D01*
X59130000Y-127140000D02*
X57920000Y-128350000D01*
X57920000Y-128350000D02*
X57920000Y-128840000D01*
X59130000Y-125560000D02*
X59130000Y-127140000D01*
X59690000Y-125000000D02*
X59130000Y-125560000D01*
X76190000Y-125000000D02*
X59690000Y-125000000D01*
X76980000Y-125790000D02*
X76190000Y-125000000D01*
X76980000Y-129320000D02*
X76980000Y-125790000D01*
X78090000Y-130430000D02*
X76980000Y-129320000D01*
X78090000Y-133120000D02*
X78090000Y-130430000D01*
X79423500Y-134453500D02*
X78090000Y-133120000D01*
X79423500Y-134543500D02*
X79423500Y-134453500D01*
X79423500Y-132003500D02*
X79423500Y-130023500D01*
X79423500Y-130023500D02*
X78240000Y-128840000D01*
X58540000Y-130150000D02*
X56690000Y-130150000D01*
X56690000Y-130150000D02*
X55380000Y-128840000D01*
X59090000Y-129600000D02*
X58540000Y-130150000D01*
X59090000Y-128170000D02*
X59090000Y-129600000D01*
X59680000Y-127580000D02*
X59090000Y-128170000D01*
X73850000Y-127580000D02*
X59680000Y-127580000D01*
X74370000Y-128100000D02*
X73850000Y-127580000D01*
X74370000Y-129630000D02*
X74370000Y-128100000D01*
X75630000Y-130890000D02*
X74370000Y-129630000D01*
X75630000Y-133230000D02*
X75630000Y-130890000D01*
X76883500Y-134483500D02*
X75630000Y-133230000D01*
X76883500Y-134543500D02*
X76883500Y-134483500D01*
X76883500Y-132003500D02*
X76883500Y-130023500D01*
X76883500Y-130023500D02*
X75700000Y-128840000D01*
D16*
X71803500Y-132003500D02*
X56003500Y-132003500D01*
X56003500Y-132003500D02*
X52840000Y-128840000D01*
X51860000Y-131570000D02*
X52840000Y-130590000D01*
X52840000Y-130590000D02*
X52840000Y-128840000D01*
X39900000Y-131570000D02*
X51860000Y-131570000D01*
X37600000Y-129270000D02*
X39900000Y-131570000D01*
X37600000Y-128840000D02*
X37600000Y-129270000D01*
X67696500Y-82456500D02*
X67696500Y-81616500D01*
X67696500Y-81616500D02*
X65530000Y-79450000D01*
X65530000Y-79450000D02*
X42840000Y-79450000D01*
X42840000Y-79450000D02*
X37600000Y-84690000D01*
X37600000Y-84690000D02*
X37600000Y-88200000D01*
X90843500Y-134543500D02*
X88400000Y-132100000D01*
X88400000Y-132100000D02*
X88400000Y-128840000D01*
X94803500Y-134543500D02*
X90843500Y-134543500D01*
X73160000Y-128840000D02*
X70620000Y-128840000D01*
X71803500Y-132003500D02*
X71803500Y-130023500D01*
X71803500Y-130023500D02*
X70620000Y-128840000D01*
X71803500Y-134543500D02*
X71803500Y-132003500D01*
X96260000Y-136990000D02*
X110730000Y-136990000D01*
X110730000Y-136990000D02*
X118880000Y-128840000D01*
X94803500Y-135533500D02*
X96260000Y-136990000D01*
X94803500Y-134543500D02*
X94803500Y-135533500D01*
X103080000Y-130360000D02*
X103640000Y-129800000D01*
X103640000Y-129800000D02*
X103640000Y-128840000D01*
X95930000Y-130360000D02*
X103080000Y-130360000D01*
X94803500Y-131486500D02*
X95930000Y-130360000D01*
X94803500Y-132003500D02*
X94803500Y-131486500D01*
X94803500Y-132003500D02*
X94803500Y-134543500D01*
D15*
X104400000Y-89460000D02*
X117620000Y-89460000D01*
X117620000Y-89460000D02*
X118880000Y-88200000D01*
X103640000Y-88700000D02*
X104400000Y-89460000D01*
X103640000Y-88200000D02*
X103640000Y-88700000D01*
X69290000Y-89470000D02*
X54110000Y-89470000D01*
X54110000Y-89470000D02*
X52840000Y-88200000D01*
X70560000Y-88200000D02*
X69290000Y-89470000D01*
X70620000Y-88200000D02*
X70560000Y-88200000D01*
D16*
X70620000Y-88200000D02*
X70600000Y-88200000D01*
X90696500Y-84996500D02*
X90696500Y-85903500D01*
X90696500Y-85903500D02*
X88400000Y-88200000D01*
X70620000Y-88200000D02*
X73160000Y-88200000D01*
X68356500Y-84996500D02*
X70620000Y-87260000D01*
X70620000Y-87260000D02*
X70620000Y-88200000D01*
X67696500Y-84996500D02*
X68356500Y-84996500D01*
X67696500Y-82456500D02*
X67696500Y-84996500D01*
X90696500Y-82456500D02*
X90696500Y-84996500D01*
X117476500Y-84996500D02*
X118880000Y-86400000D01*
X118880000Y-86400000D02*
X118880000Y-88200000D01*
X113696500Y-84996500D02*
X117476500Y-84996500D01*
X113696500Y-82456500D02*
X113696500Y-84996500D01*
D17*
X107300000Y-130160000D02*
X104267000Y-130160000D01*
X104267000Y-130160000D02*
X102423500Y-132003500D01*
X108620000Y-128840000D02*
X107300000Y-130160000D01*
X108720000Y-128840000D02*
X108620000Y-128840000D01*
X109810000Y-130670000D02*
X106297000Y-130670000D01*
X106297000Y-130670000D02*
X104963500Y-132003500D01*
X111260000Y-129220000D02*
X109810000Y-130670000D01*
X111260000Y-128840000D02*
X111260000Y-129220000D01*
X111856500Y-132003500D02*
X113800000Y-130060000D01*
X113800000Y-130060000D02*
X113800000Y-128840000D01*
X107503500Y-132003500D02*
X111856500Y-132003500D01*
X60260000Y-86790000D02*
X49170000Y-86790000D01*
X49170000Y-86790000D02*
X47760000Y-88200000D01*
X61340000Y-85710000D02*
X60260000Y-86790000D01*
X61340000Y-83770000D02*
X61340000Y-85710000D01*
X62616500Y-82493500D02*
X61340000Y-83770000D01*
X62616500Y-82456500D02*
X62616500Y-82493500D01*
X60076500Y-84996500D02*
X60076500Y-84333500D01*
X45640000Y-86310000D02*
X45220000Y-86730000D01*
X45220000Y-86730000D02*
X45220000Y-88200000D01*
X58130000Y-86310000D02*
X45640000Y-86310000D01*
X58840000Y-85600000D02*
X58130000Y-86310000D01*
X58840000Y-83740000D02*
X58840000Y-85600000D01*
X60076500Y-82503500D02*
X58840000Y-83740000D01*
X60076500Y-82456500D02*
X60076500Y-82503500D01*
X44010000Y-125970000D02*
X44010000Y-127630000D01*
X44010000Y-127630000D02*
X45220000Y-128840000D01*
X43050000Y-125010000D02*
X44010000Y-125970000D01*
X39600000Y-125010000D02*
X43050000Y-125010000D01*
X38900000Y-124310000D02*
X39600000Y-125010000D01*
X38900000Y-85220000D02*
X38900000Y-124310000D01*
X43310000Y-80810000D02*
X38900000Y-85220000D01*
X58000000Y-80810000D02*
X43310000Y-80810000D01*
X58760000Y-81570000D02*
X58000000Y-80810000D01*
X58760000Y-83040000D02*
X58760000Y-81570000D01*
X57536500Y-84263500D02*
X58760000Y-83040000D01*
X57536500Y-84996500D02*
X57536500Y-84263500D01*
X45460000Y-83700000D02*
X42680000Y-86480000D01*
X42680000Y-86480000D02*
X42680000Y-88200000D01*
X56530000Y-83700000D02*
X45460000Y-83700000D01*
X57536500Y-82693500D02*
X56530000Y-83700000D01*
X57536500Y-82456500D02*
X57536500Y-82693500D01*
X46490000Y-125790000D02*
X46490000Y-127570000D01*
X46490000Y-127570000D02*
X47760000Y-128840000D01*
X45650000Y-124950000D02*
X46490000Y-125790000D01*
X44620000Y-124950000D02*
X45650000Y-124950000D01*
X43900000Y-124230000D02*
X44620000Y-124950000D01*
X43900000Y-86890000D02*
X43900000Y-124230000D01*
X45793500Y-84996500D02*
X43900000Y-86890000D01*
X54996500Y-84996500D02*
X45793500Y-84996500D01*
X44123500Y-82456500D02*
X40140000Y-86440000D01*
X40140000Y-86440000D02*
X40140000Y-88200000D01*
X54996500Y-82456500D02*
X44123500Y-82456500D01*
X84290000Y-84140000D02*
X84290000Y-87230000D01*
X84290000Y-87230000D02*
X83320000Y-88200000D01*
X85616500Y-82813500D02*
X84290000Y-84140000D01*
X85616500Y-82456500D02*
X85616500Y-82813500D01*
X81830000Y-83840000D02*
X81830000Y-87150000D01*
X81830000Y-87150000D02*
X80780000Y-88200000D01*
X83076500Y-82593500D02*
X81830000Y-83840000D01*
X83076500Y-82456500D02*
X83076500Y-82593500D01*
X79310000Y-84080000D02*
X79310000Y-87130000D01*
X79310000Y-87130000D02*
X78240000Y-88200000D01*
X80536500Y-82853500D02*
X79310000Y-84080000D01*
X80536500Y-82456500D02*
X80536500Y-82853500D01*
X77893500Y-82456500D02*
X75700000Y-84650000D01*
X75700000Y-84650000D02*
X75700000Y-88200000D01*
X77996500Y-82456500D02*
X77893500Y-82456500D01*
X103410000Y-86840000D02*
X104820000Y-86840000D01*
X104820000Y-86840000D02*
X106180000Y-88200000D01*
X102310000Y-85740000D02*
X103410000Y-86840000D01*
X102310000Y-83630000D02*
X102310000Y-85740000D01*
X101136500Y-82456500D02*
X102310000Y-83630000D01*
X100996500Y-82456500D02*
X101136500Y-82456500D01*
X93990000Y-89430000D02*
X92170000Y-89430000D01*
X92170000Y-89430000D02*
X90940000Y-88200000D01*
X94680000Y-88740000D02*
X93990000Y-89430000D01*
X94680000Y-86310000D02*
X94680000Y-88740000D01*
X95993500Y-84996500D02*
X94680000Y-86310000D01*
X100996500Y-84996500D02*
X95993500Y-84996500D01*
X106740000Y-86700000D02*
X108240000Y-88200000D01*
D18*
X108240000Y-88200000D02*
X108720000Y-88200000D01*
D17*
X105710000Y-86700000D02*
X106740000Y-86700000D01*
X104810000Y-85800000D02*
X105710000Y-86700000D01*
X104810000Y-83750000D02*
X104810000Y-85800000D01*
X103536500Y-82476500D02*
X104810000Y-83750000D01*
D18*
X103536500Y-82456500D02*
X103536500Y-82476500D01*
D17*
X96940000Y-81030000D02*
X93480000Y-84490000D01*
X93480000Y-84490000D02*
X93480000Y-88200000D01*
X101590000Y-81030000D02*
X96940000Y-81030000D01*
X102290000Y-81730000D02*
X101590000Y-81030000D01*
X102290000Y-82920000D02*
X102290000Y-81730000D01*
X103536500Y-84166500D02*
X102290000Y-82920000D01*
X103536500Y-84996500D02*
X103536500Y-84166500D01*
X108080000Y-86780000D02*
X109840000Y-86780000D01*
X109840000Y-86780000D02*
X111260000Y-88200000D01*
X107350000Y-86050000D02*
X108080000Y-86780000D01*
X107350000Y-83890000D02*
X107350000Y-86050000D01*
X106076500Y-82616500D02*
X107350000Y-83890000D01*
D18*
X106076500Y-82456500D02*
X106076500Y-82616500D01*
D17*
X111620000Y-86820000D02*
X113000000Y-88200000D01*
D18*
X113000000Y-88200000D02*
X113800000Y-88200000D01*
D17*
X110730000Y-86820000D02*
X111620000Y-86820000D01*
X109890000Y-85980000D02*
X110730000Y-86820000D01*
X109890000Y-84150000D02*
X109890000Y-85980000D01*
X108616500Y-82876500D02*
X109890000Y-84150000D01*
D18*
X108616500Y-82456500D02*
X108616500Y-82876500D01*
M02*
