M48
INCH,TZ
T1C0.031
T2C0.040
%
G90
G05
T1
X13803Y-34724
X13803Y-35724
X13803Y-36724
X13803Y-37724
X13803Y-38724
X13803Y-39724
X13803Y-40724
X13803Y-41724
X13803Y-42724
X13803Y-43724
X13803Y-44724
X13803Y-45724
X13803Y-46724
X13803Y-47724
X13803Y-48724
X13803Y-49724
X13803Y-50724
X14803Y-34724
X14803Y-35724
X14803Y-36724
X14803Y-37724
X14803Y-38724
X14803Y-39724
X14803Y-40724
X14803Y-41724
X14803Y-42724
X14803Y-43724
X14803Y-44724
X14803Y-45724
X14803Y-46724
X14803Y-47724
X14803Y-48724
X14803Y-49724
X14803Y-50724
X15803Y-34724
X15803Y-35724
X15803Y-36724
X15803Y-37724
X15803Y-38724
X15803Y-39724
X15803Y-40724
X15803Y-41724
X15803Y-42724
X15803Y-43724
X15803Y-44724
X15803Y-45724
X15803Y-46724
X15803Y-47724
X15803Y-48724
X15803Y-49724
X15803Y-50724
X16803Y-34724
X16803Y-35724
X16803Y-36724
X16803Y-37724
X16803Y-38724
X16803Y-39724
X16803Y-40724
X16803Y-41724
X16803Y-42724
X16803Y-43724
X16803Y-44724
X16803Y-45724
X16803Y-46724
X16803Y-47724
X16803Y-48724
X16803Y-49724
X16803Y-50724
X17803Y-34724
X17803Y-35724
X17803Y-36724
X17803Y-37724
X17803Y-38724
X17803Y-39724
X17803Y-40724
X17803Y-41724
X17803Y-42724
X17803Y-43724
X17803Y-44724
X17803Y-45724
X17803Y-46724
X17803Y-47724
X17803Y-48724
X17803Y-49724
X17803Y-50724
X18803Y-34724
X18803Y-35724
X18803Y-36724
X18803Y-37724
X18803Y-38724
X18803Y-39724
X18803Y-40724
X18803Y-41724
X18803Y-42724
X18803Y-43724
X18803Y-44724
X18803Y-45724
X18803Y-46724
X18803Y-47724
X18803Y-48724
X18803Y-49724
X18803Y-50724
X19803Y-34724
X19803Y-35724
X19803Y-36724
X19803Y-37724
X19803Y-38724
X19803Y-39724
X19803Y-40724
X19803Y-41724
X19803Y-42724
X19803Y-43724
X19803Y-44724
X19803Y-45724
X19803Y-46724
X19803Y-47724
X19803Y-48724
X19803Y-49724
X19803Y-50724
X20803Y-34724
X20803Y-35724
X20803Y-36724
X20803Y-37724
X20803Y-38724
X20803Y-39724
X20803Y-40724
X20803Y-41724
X20803Y-42724
X20803Y-43724
X20803Y-44724
X20803Y-45724
X20803Y-46724
X20803Y-47724
X20803Y-48724
X20803Y-49724
X20803Y-50724
X21803Y-34724
X21803Y-35724
X21803Y-36724
X21803Y-37724
X21803Y-38724
X21803Y-39724
X21803Y-40724
X21803Y-41724
X21803Y-42724
X21803Y-43724
X21803Y-44724
X21803Y-45724
X21803Y-46724
X21803Y-47724
X21803Y-48724
X21803Y-49724
X21803Y-50724
X22803Y-34724
X22803Y-35724
X22803Y-36724
X22803Y-37724
X22803Y-38724
X22803Y-39724
X22803Y-40724
X22803Y-41724
X22803Y-42724
X22803Y-43724
X22803Y-44724
X22803Y-45724
X22803Y-46724
X22803Y-47724
X22803Y-48724
X22803Y-49724
X22803Y-50724
X23803Y-34724
X23803Y-35724
X23803Y-36724
X23803Y-37724
X23803Y-38724
X23803Y-39724
X23803Y-40724
X23803Y-41724
X23803Y-42724
X23803Y-43724
X23803Y-44724
X23803Y-45724
X23803Y-46724
X23803Y-47724
X23803Y-48724
X23803Y-49724
X23803Y-50724
X24803Y-34724
X24803Y-35724
X24803Y-36724
X24803Y-37724
X24803Y-38724
X24803Y-39724
X24803Y-40724
X24803Y-41724
X24803Y-42724
X24803Y-43724
X24803Y-44724
X24803Y-45724
X24803Y-46724
X24803Y-47724
X24803Y-48724
X24803Y-49724
X24803Y-50724
X25803Y-34724
X25803Y-35724
X25803Y-36724
X25803Y-37724
X25803Y-38724
X25803Y-39724
X25803Y-40724
X25803Y-41724
X25803Y-42724
X25803Y-43724
X25803Y-44724
X25803Y-45724
X25803Y-46724
X25803Y-47724
X25803Y-48724
X25803Y-49724
X25803Y-50724
X26803Y-34724
X26803Y-35724
X26803Y-36724
X26803Y-37724
X26803Y-38724
X26803Y-39724
X26803Y-40724
X26803Y-41724
X26803Y-42724
X26803Y-43724
X26803Y-44724
X26803Y-45724
X26803Y-46724
X26803Y-47724
X26803Y-48724
X26803Y-49724
X26803Y-50724
X27803Y-34724
X27803Y-35724
X27803Y-36724
X27803Y-37724
X27803Y-38724
X27803Y-39724
X27803Y-40724
X27803Y-41724
X27803Y-42724
X27803Y-43724
X27803Y-44724
X27803Y-45724
X27803Y-46724
X27803Y-47724
X27803Y-48724
X27803Y-49724
X27803Y-50724
X28803Y-34724
X28803Y-35724
X28803Y-36724
X28803Y-37724
X28803Y-38724
X28803Y-39724
X28803Y-40724
X28803Y-41724
X28803Y-42724
X28803Y-43724
X28803Y-44724
X28803Y-45724
X28803Y-46724
X28803Y-47724
X28803Y-48724
X28803Y-49724
X28803Y-50724
X29803Y-34724
X29803Y-35724
X29803Y-36724
X29803Y-37724
X29803Y-38724
X29803Y-39724
X29803Y-40724
X29803Y-41724
X29803Y-42724
X29803Y-43724
X29803Y-44724
X29803Y-45724
X29803Y-46724
X29803Y-47724
X29803Y-48724
X29803Y-49724
X29803Y-50724
X30803Y-34724
X30803Y-35724
X30803Y-36724
X30803Y-37724
X30803Y-38724
X30803Y-39724
X30803Y-40724
X30803Y-41724
X30803Y-42724
X30803Y-43724
X30803Y-44724
X30803Y-45724
X30803Y-46724
X30803Y-47724
X30803Y-48724
X30803Y-49724
X30803Y-50724
X31803Y-34724
X31803Y-35724
X31803Y-36724
X31803Y-37724
X31803Y-38724
X31803Y-39724
X31803Y-40724
X31803Y-41724
X31803Y-42724
X31803Y-43724
X31803Y-44724
X31803Y-45724
X31803Y-46724
X31803Y-47724
X31803Y-48724
X31803Y-49724
X31803Y-50724
X32803Y-34724
X32803Y-35724
X32803Y-36724
X32803Y-37724
X32803Y-38724
X32803Y-39724
X32803Y-40724
X32803Y-41724
X32803Y-42724
X32803Y-43724
X32803Y-44724
X32803Y-45724
X32803Y-46724
X32803Y-47724
X32803Y-48724
X32803Y-49724
X32803Y-50724
X33803Y-34724
X33803Y-35724
X33803Y-36724
X33803Y-37724
X33803Y-38724
X33803Y-39724
X33803Y-40724
X33803Y-41724
X33803Y-42724
X33803Y-43724
X33803Y-44724
X33803Y-45724
X33803Y-46724
X33803Y-47724
X33803Y-48724
X33803Y-49724
X33803Y-50724
X34803Y-34724
X34803Y-35724
X34803Y-36724
X34803Y-37724
X34803Y-38724
X34803Y-39724
X34803Y-40724
X34803Y-41724
X34803Y-42724
X34803Y-43724
X34803Y-44724
X34803Y-45724
X34803Y-46724
X34803Y-47724
X34803Y-48724
X34803Y-49724
X34803Y-50724
X35803Y-34724
X35803Y-35724
X35803Y-36724
X35803Y-37724
X35803Y-38724
X35803Y-39724
X35803Y-40724
X35803Y-41724
X35803Y-42724
X35803Y-43724
X35803Y-44724
X35803Y-45724
X35803Y-46724
X35803Y-47724
X35803Y-48724
X35803Y-49724
X35803Y-50724
X36803Y-34724
X36803Y-35724
X36803Y-36724
X36803Y-37724
X36803Y-38724
X36803Y-39724
X36803Y-40724
X36803Y-41724
X36803Y-42724
X36803Y-43724
X36803Y-44724
X36803Y-45724
X36803Y-46724
X36803Y-47724
X36803Y-48724
X36803Y-49724
X36803Y-50724
X37803Y-34724
X37803Y-35724
X37803Y-36724
X37803Y-37724
X37803Y-38724
X37803Y-39724
X37803Y-40724
X37803Y-41724
X37803Y-42724
X37803Y-43724
X37803Y-44724
X37803Y-45724
X37803Y-46724
X37803Y-47724
X37803Y-48724
X37803Y-49724
X37803Y-50724
X38803Y-34724
X38803Y-35724
X38803Y-36724
X38803Y-37724
X38803Y-38724
X38803Y-39724
X38803Y-40724
X38803Y-41724
X38803Y-42724
X38803Y-43724
X38803Y-44724
X38803Y-45724
X38803Y-46724
X38803Y-47724
X38803Y-48724
X38803Y-49724
X38803Y-50724
X39803Y-34724
X39803Y-35724
X39803Y-36724
X39803Y-37724
X39803Y-38724
X39803Y-39724
X39803Y-40724
X39803Y-41724
X39803Y-42724
X39803Y-43724
X39803Y-44724
X39803Y-45724
X39803Y-46724
X39803Y-47724
X39803Y-48724
X39803Y-49724
X39803Y-50724
X40803Y-34724
X40803Y-35724
X40803Y-36724
X40803Y-37724
X40803Y-38724
X40803Y-39724
X40803Y-40724
X40803Y-41724
X40803Y-42724
X40803Y-43724
X40803Y-44724
X40803Y-45724
X40803Y-46724
X40803Y-47724
X40803Y-48724
X40803Y-49724
X40803Y-50724
X41803Y-34724
X41803Y-35724
X41803Y-36724
X41803Y-37724
X41803Y-38724
X41803Y-39724
X41803Y-40724
X41803Y-41724
X41803Y-42724
X41803Y-43724
X41803Y-44724
X41803Y-45724
X41803Y-46724
X41803Y-47724
X41803Y-48724
X41803Y-49724
X41803Y-50724
X42803Y-34724
X42803Y-35724
X42803Y-36724
X42803Y-37724
X42803Y-38724
X42803Y-39724
X42803Y-40724
X42803Y-41724
X42803Y-42724
X42803Y-43724
X42803Y-44724
X42803Y-45724
X42803Y-46724
X42803Y-47724
X42803Y-48724
X42803Y-49724
X42803Y-50724
X43803Y-34724
X43803Y-35724
X43803Y-36724
X43803Y-37724
X43803Y-38724
X43803Y-39724
X43803Y-40724
X43803Y-41724
X43803Y-42724
X43803Y-43724
X43803Y-44724
X43803Y-45724
X43803Y-46724
X43803Y-47724
X43803Y-48724
X43803Y-49724
X43803Y-50724
X44803Y-34724
X44803Y-35724
X44803Y-36724
X44803Y-37724
X44803Y-38724
X44803Y-39724
X44803Y-40724
X44803Y-41724
X44803Y-42724
X44803Y-43724
X44803Y-44724
X44803Y-45724
X44803Y-46724
X44803Y-47724
X44803Y-48724
X44803Y-49724
X44803Y-50724
X45803Y-34724
X45803Y-35724
X45803Y-36724
X45803Y-37724
X45803Y-38724
X45803Y-39724
X45803Y-40724
X45803Y-41724
X45803Y-42724
X45803Y-43724
X45803Y-44724
X45803Y-45724
X45803Y-46724
X45803Y-47724
X45803Y-48724
X45803Y-49724
X45803Y-50724
X46803Y-34724
X46803Y-35724
X46803Y-36724
X46803Y-37724
X46803Y-38724
X46803Y-39724
X46803Y-40724
X46803Y-41724
X46803Y-42724
X46803Y-43724
X46803Y-44724
X46803Y-45724
X46803Y-46724
X46803Y-47724
X46803Y-48724
X46803Y-49724
X46803Y-50724
T2
X21652Y-32463
X21652Y-33463
X22652Y-32463
X22652Y-33463
X23652Y-32463
X23652Y-33463
X24652Y-32463
X24652Y-33463
X25652Y-32463
X25652Y-33463
X26652Y-32463
X26652Y-33463
X28269Y-51970
X28269Y-52970
X29269Y-51970
X29269Y-52970
X30269Y-51970
X30269Y-52970
X30707Y-32463
X30707Y-33463
X31269Y-51970
X31269Y-52970
X31707Y-32463
X31707Y-33463
X32269Y-51970
X32269Y-52970
X32707Y-32463
X32707Y-33463
X33269Y-51970
X33269Y-52970
X33707Y-32463
X33707Y-33463
X34707Y-32463
X34707Y-33463
X35707Y-32463
X35707Y-33463
X37324Y-51970
X37324Y-52970
X38324Y-51970
X38324Y-52970
X39324Y-51970
X39324Y-52970
X39762Y-32463
X39762Y-33463
X40324Y-51970
X40324Y-52970
X40762Y-32463
X40762Y-33463
X41324Y-51970
X41324Y-52970
X41762Y-32463
X41762Y-33463
X42324Y-51970
X42324Y-52970
X42762Y-32463
X42762Y-33463
X43762Y-32463
X43762Y-33463
X44762Y-32463
X44762Y-33463
T0
M30
