G04 #@! TF.GenerationSoftware,KiCad,Pcbnew,(2017-01-24 revision 0b6147e)-makepkg*
G04 #@! TF.CreationDate,2017-09-23T09:01:55-07:00*
G04 #@! TF.ProjectId,SpartanMiniProtoShield,5370617274616E4D696E6950726F746F,rev?*
G04 #@! TF.FileFunction,Legend,Top*
G04 #@! TF.FilePolarity,Positive*
%FSLAX46Y46*%
G04 Gerber Fmt 4.6, Leading zero omitted, Abs format (unit mm)*
G04 Created by KiCad (PCBNEW (2017-01-24 revision 0b6147e)-makepkg) date 09/23/17 09:01:55*
%MOMM*%
%LPD*%
G01*
G04 APERTURE LIST*
%ADD10C,0.100000*%
%ADD11C,0.150000*%
%ADD12C,0.200000*%
%ADD13C,0.010000*%
%ADD14O,2.000000X2.000000*%
%ADD15O,2.127200X2.127200*%
%ADD16R,2.127200X2.127200*%
%ADD17C,2.127200*%
%ADD18C,3.100000*%
G04 APERTURE END LIST*
D10*
D11*
X117990476Y-130471428D02*
X118752380Y-130471428D01*
X118371428Y-130852380D02*
X118371428Y-130090476D01*
X119085714Y-129852380D02*
X119419047Y-130852380D01*
X119752380Y-129852380D01*
X116061904Y-129900000D02*
X115966666Y-129852380D01*
X115823809Y-129852380D01*
X115680952Y-129900000D01*
X115585714Y-129995238D01*
X115538095Y-130090476D01*
X115490476Y-130280952D01*
X115490476Y-130423809D01*
X115538095Y-130614285D01*
X115585714Y-130709523D01*
X115680952Y-130804761D01*
X115823809Y-130852380D01*
X115919047Y-130852380D01*
X116061904Y-130804761D01*
X116109523Y-130757142D01*
X116109523Y-130423809D01*
X115919047Y-130423809D01*
X116538095Y-130852380D02*
X116538095Y-129852380D01*
X116776190Y-129852380D01*
X116919047Y-129900000D01*
X117014285Y-129995238D01*
X117061904Y-130090476D01*
X117109523Y-130280952D01*
X117109523Y-130423809D01*
X117061904Y-130614285D01*
X117014285Y-130709523D01*
X116919047Y-130804761D01*
X116776190Y-130852380D01*
X116538095Y-130852380D01*
X113395238Y-130328571D02*
X113538095Y-130376190D01*
X113585714Y-130423809D01*
X113633333Y-130519047D01*
X113633333Y-130661904D01*
X113585714Y-130757142D01*
X113538095Y-130804761D01*
X113442857Y-130852380D01*
X113061904Y-130852380D01*
X113061904Y-129852380D01*
X113395238Y-129852380D01*
X113490476Y-129900000D01*
X113538095Y-129947619D01*
X113585714Y-130042857D01*
X113585714Y-130138095D01*
X113538095Y-130233333D01*
X113490476Y-130280952D01*
X113395238Y-130328571D01*
X113061904Y-130328571D01*
X114252380Y-129852380D02*
X114347619Y-129852380D01*
X114442857Y-129900000D01*
X114490476Y-129947619D01*
X114538095Y-130042857D01*
X114585714Y-130233333D01*
X114585714Y-130471428D01*
X114538095Y-130661904D01*
X114490476Y-130757142D01*
X114442857Y-130804761D01*
X114347619Y-130852380D01*
X114252380Y-130852380D01*
X114157142Y-130804761D01*
X114109523Y-130757142D01*
X114061904Y-130661904D01*
X114014285Y-130471428D01*
X114014285Y-130233333D01*
X114061904Y-130042857D01*
X114109523Y-129947619D01*
X114157142Y-129900000D01*
X114252380Y-129852380D01*
X110795238Y-130328571D02*
X110938095Y-130376190D01*
X110985714Y-130423809D01*
X111033333Y-130519047D01*
X111033333Y-130661904D01*
X110985714Y-130757142D01*
X110938095Y-130804761D01*
X110842857Y-130852380D01*
X110461904Y-130852380D01*
X110461904Y-129852380D01*
X110795238Y-129852380D01*
X110890476Y-129900000D01*
X110938095Y-129947619D01*
X110985714Y-130042857D01*
X110985714Y-130138095D01*
X110938095Y-130233333D01*
X110890476Y-130280952D01*
X110795238Y-130328571D01*
X110461904Y-130328571D01*
X111985714Y-130852380D02*
X111414285Y-130852380D01*
X111700000Y-130852380D02*
X111700000Y-129852380D01*
X111604761Y-129995238D01*
X111509523Y-130090476D01*
X111414285Y-130138095D01*
X108295238Y-130328571D02*
X108438095Y-130376190D01*
X108485714Y-130423809D01*
X108533333Y-130519047D01*
X108533333Y-130661904D01*
X108485714Y-130757142D01*
X108438095Y-130804761D01*
X108342857Y-130852380D01*
X107961904Y-130852380D01*
X107961904Y-129852380D01*
X108295238Y-129852380D01*
X108390476Y-129900000D01*
X108438095Y-129947619D01*
X108485714Y-130042857D01*
X108485714Y-130138095D01*
X108438095Y-130233333D01*
X108390476Y-130280952D01*
X108295238Y-130328571D01*
X107961904Y-130328571D01*
X108914285Y-129947619D02*
X108961904Y-129900000D01*
X109057142Y-129852380D01*
X109295238Y-129852380D01*
X109390476Y-129900000D01*
X109438095Y-129947619D01*
X109485714Y-130042857D01*
X109485714Y-130138095D01*
X109438095Y-130280952D01*
X108866666Y-130852380D01*
X109485714Y-130852380D01*
X105695238Y-130328571D02*
X105838095Y-130376190D01*
X105885714Y-130423809D01*
X105933333Y-130519047D01*
X105933333Y-130661904D01*
X105885714Y-130757142D01*
X105838095Y-130804761D01*
X105742857Y-130852380D01*
X105361904Y-130852380D01*
X105361904Y-129852380D01*
X105695238Y-129852380D01*
X105790476Y-129900000D01*
X105838095Y-129947619D01*
X105885714Y-130042857D01*
X105885714Y-130138095D01*
X105838095Y-130233333D01*
X105790476Y-130280952D01*
X105695238Y-130328571D01*
X105361904Y-130328571D01*
X106266666Y-129852380D02*
X106885714Y-129852380D01*
X106552380Y-130233333D01*
X106695238Y-130233333D01*
X106790476Y-130280952D01*
X106838095Y-130328571D01*
X106885714Y-130423809D01*
X106885714Y-130661904D01*
X106838095Y-130757142D01*
X106790476Y-130804761D01*
X106695238Y-130852380D01*
X106409523Y-130852380D01*
X106314285Y-130804761D01*
X106266666Y-130757142D01*
X102790476Y-130471428D02*
X103552380Y-130471428D01*
X103171428Y-130852380D02*
X103171428Y-130090476D01*
X103885714Y-129852380D02*
X104219047Y-130852380D01*
X104552380Y-129852380D01*
X100861904Y-129900000D02*
X100766666Y-129852380D01*
X100623809Y-129852380D01*
X100480952Y-129900000D01*
X100385714Y-129995238D01*
X100338095Y-130090476D01*
X100290476Y-130280952D01*
X100290476Y-130423809D01*
X100338095Y-130614285D01*
X100385714Y-130709523D01*
X100480952Y-130804761D01*
X100623809Y-130852380D01*
X100719047Y-130852380D01*
X100861904Y-130804761D01*
X100909523Y-130757142D01*
X100909523Y-130423809D01*
X100719047Y-130423809D01*
X101338095Y-130852380D02*
X101338095Y-129852380D01*
X101576190Y-129852380D01*
X101719047Y-129900000D01*
X101814285Y-129995238D01*
X101861904Y-130090476D01*
X101909523Y-130280952D01*
X101909523Y-130423809D01*
X101861904Y-130614285D01*
X101814285Y-130709523D01*
X101719047Y-130804761D01*
X101576190Y-130852380D01*
X101338095Y-130852380D01*
X98095238Y-130328571D02*
X98238095Y-130376190D01*
X98285714Y-130423809D01*
X98333333Y-130519047D01*
X98333333Y-130661904D01*
X98285714Y-130757142D01*
X98238095Y-130804761D01*
X98142857Y-130852380D01*
X97761904Y-130852380D01*
X97761904Y-129852380D01*
X98095238Y-129852380D01*
X98190476Y-129900000D01*
X98238095Y-129947619D01*
X98285714Y-130042857D01*
X98285714Y-130138095D01*
X98238095Y-130233333D01*
X98190476Y-130280952D01*
X98095238Y-130328571D01*
X97761904Y-130328571D01*
X99190476Y-130185714D02*
X99190476Y-130852380D01*
X98952380Y-129804761D02*
X98714285Y-130519047D01*
X99333333Y-130519047D01*
X95595238Y-130328571D02*
X95738095Y-130376190D01*
X95785714Y-130423809D01*
X95833333Y-130519047D01*
X95833333Y-130661904D01*
X95785714Y-130757142D01*
X95738095Y-130804761D01*
X95642857Y-130852380D01*
X95261904Y-130852380D01*
X95261904Y-129852380D01*
X95595238Y-129852380D01*
X95690476Y-129900000D01*
X95738095Y-129947619D01*
X95785714Y-130042857D01*
X95785714Y-130138095D01*
X95738095Y-130233333D01*
X95690476Y-130280952D01*
X95595238Y-130328571D01*
X95261904Y-130328571D01*
X96738095Y-129852380D02*
X96261904Y-129852380D01*
X96214285Y-130328571D01*
X96261904Y-130280952D01*
X96357142Y-130233333D01*
X96595238Y-130233333D01*
X96690476Y-130280952D01*
X96738095Y-130328571D01*
X96785714Y-130423809D01*
X96785714Y-130661904D01*
X96738095Y-130757142D01*
X96690476Y-130804761D01*
X96595238Y-130852380D01*
X96357142Y-130852380D01*
X96261904Y-130804761D01*
X96214285Y-130757142D01*
X93095238Y-130328571D02*
X93238095Y-130376190D01*
X93285714Y-130423809D01*
X93333333Y-130519047D01*
X93333333Y-130661904D01*
X93285714Y-130757142D01*
X93238095Y-130804761D01*
X93142857Y-130852380D01*
X92761904Y-130852380D01*
X92761904Y-129852380D01*
X93095238Y-129852380D01*
X93190476Y-129900000D01*
X93238095Y-129947619D01*
X93285714Y-130042857D01*
X93285714Y-130138095D01*
X93238095Y-130233333D01*
X93190476Y-130280952D01*
X93095238Y-130328571D01*
X92761904Y-130328571D01*
X94190476Y-129852380D02*
X94000000Y-129852380D01*
X93904761Y-129900000D01*
X93857142Y-129947619D01*
X93761904Y-130090476D01*
X93714285Y-130280952D01*
X93714285Y-130661904D01*
X93761904Y-130757142D01*
X93809523Y-130804761D01*
X93904761Y-130852380D01*
X94095238Y-130852380D01*
X94190476Y-130804761D01*
X94238095Y-130757142D01*
X94285714Y-130661904D01*
X94285714Y-130423809D01*
X94238095Y-130328571D01*
X94190476Y-130280952D01*
X94095238Y-130233333D01*
X93904761Y-130233333D01*
X93809523Y-130280952D01*
X93761904Y-130328571D01*
X93714285Y-130423809D01*
X90495238Y-130328571D02*
X90638095Y-130376190D01*
X90685714Y-130423809D01*
X90733333Y-130519047D01*
X90733333Y-130661904D01*
X90685714Y-130757142D01*
X90638095Y-130804761D01*
X90542857Y-130852380D01*
X90161904Y-130852380D01*
X90161904Y-129852380D01*
X90495238Y-129852380D01*
X90590476Y-129900000D01*
X90638095Y-129947619D01*
X90685714Y-130042857D01*
X90685714Y-130138095D01*
X90638095Y-130233333D01*
X90590476Y-130280952D01*
X90495238Y-130328571D01*
X90161904Y-130328571D01*
X91066666Y-129852380D02*
X91733333Y-129852380D01*
X91304761Y-130852380D01*
X87590476Y-130471428D02*
X88352380Y-130471428D01*
X87971428Y-130852380D02*
X87971428Y-130090476D01*
X88685714Y-129852380D02*
X89019047Y-130852380D01*
X89352380Y-129852380D01*
X85561904Y-129900000D02*
X85466666Y-129852380D01*
X85323809Y-129852380D01*
X85180952Y-129900000D01*
X85085714Y-129995238D01*
X85038095Y-130090476D01*
X84990476Y-130280952D01*
X84990476Y-130423809D01*
X85038095Y-130614285D01*
X85085714Y-130709523D01*
X85180952Y-130804761D01*
X85323809Y-130852380D01*
X85419047Y-130852380D01*
X85561904Y-130804761D01*
X85609523Y-130757142D01*
X85609523Y-130423809D01*
X85419047Y-130423809D01*
X86038095Y-130852380D02*
X86038095Y-129852380D01*
X86276190Y-129852380D01*
X86419047Y-129900000D01*
X86514285Y-129995238D01*
X86561904Y-130090476D01*
X86609523Y-130280952D01*
X86609523Y-130423809D01*
X86561904Y-130614285D01*
X86514285Y-130709523D01*
X86419047Y-130804761D01*
X86276190Y-130852380D01*
X86038095Y-130852380D01*
X82585714Y-130566666D02*
X83061904Y-130566666D01*
X82490476Y-130852380D02*
X82823809Y-129852380D01*
X83157142Y-130852380D01*
X83680952Y-129852380D02*
X83776190Y-129852380D01*
X83871428Y-129900000D01*
X83919047Y-129947619D01*
X83966666Y-130042857D01*
X84014285Y-130233333D01*
X84014285Y-130471428D01*
X83966666Y-130661904D01*
X83919047Y-130757142D01*
X83871428Y-130804761D01*
X83776190Y-130852380D01*
X83680952Y-130852380D01*
X83585714Y-130804761D01*
X83538095Y-130757142D01*
X83490476Y-130661904D01*
X83442857Y-130471428D01*
X83442857Y-130233333D01*
X83490476Y-130042857D01*
X83538095Y-129947619D01*
X83585714Y-129900000D01*
X83680952Y-129852380D01*
X80085714Y-130566666D02*
X80561904Y-130566666D01*
X79990476Y-130852380D02*
X80323809Y-129852380D01*
X80657142Y-130852380D01*
X81514285Y-130852380D02*
X80942857Y-130852380D01*
X81228571Y-130852380D02*
X81228571Y-129852380D01*
X81133333Y-129995238D01*
X81038095Y-130090476D01*
X80942857Y-130138095D01*
X77485714Y-130566666D02*
X77961904Y-130566666D01*
X77390476Y-130852380D02*
X77723809Y-129852380D01*
X78057142Y-130852380D01*
X78342857Y-129947619D02*
X78390476Y-129900000D01*
X78485714Y-129852380D01*
X78723809Y-129852380D01*
X78819047Y-129900000D01*
X78866666Y-129947619D01*
X78914285Y-130042857D01*
X78914285Y-130138095D01*
X78866666Y-130280952D01*
X78295238Y-130852380D01*
X78914285Y-130852380D01*
X74985714Y-130566666D02*
X75461904Y-130566666D01*
X74890476Y-130852380D02*
X75223809Y-129852380D01*
X75557142Y-130852380D01*
X75795238Y-129852380D02*
X76414285Y-129852380D01*
X76080952Y-130233333D01*
X76223809Y-130233333D01*
X76319047Y-130280952D01*
X76366666Y-130328571D01*
X76414285Y-130423809D01*
X76414285Y-130661904D01*
X76366666Y-130757142D01*
X76319047Y-130804761D01*
X76223809Y-130852380D01*
X75938095Y-130852380D01*
X75842857Y-130804761D01*
X75795238Y-130757142D01*
X72290476Y-130471428D02*
X73052380Y-130471428D01*
X72671428Y-130852380D02*
X72671428Y-130090476D01*
X73385714Y-129852380D02*
X73719047Y-130852380D01*
X74052380Y-129852380D01*
X69790476Y-130471428D02*
X70552380Y-130471428D01*
X70171428Y-130852380D02*
X70171428Y-130090476D01*
X70885714Y-129852380D02*
X71219047Y-130852380D01*
X71552380Y-129852380D01*
X67761904Y-129900000D02*
X67666666Y-129852380D01*
X67523809Y-129852380D01*
X67380952Y-129900000D01*
X67285714Y-129995238D01*
X67238095Y-130090476D01*
X67190476Y-130280952D01*
X67190476Y-130423809D01*
X67238095Y-130614285D01*
X67285714Y-130709523D01*
X67380952Y-130804761D01*
X67523809Y-130852380D01*
X67619047Y-130852380D01*
X67761904Y-130804761D01*
X67809523Y-130757142D01*
X67809523Y-130423809D01*
X67619047Y-130423809D01*
X68238095Y-130852380D02*
X68238095Y-129852380D01*
X68476190Y-129852380D01*
X68619047Y-129900000D01*
X68714285Y-129995238D01*
X68761904Y-130090476D01*
X68809523Y-130280952D01*
X68809523Y-130423809D01*
X68761904Y-130614285D01*
X68714285Y-130709523D01*
X68619047Y-130804761D01*
X68476190Y-130852380D01*
X68238095Y-130852380D01*
X65261904Y-129900000D02*
X65166666Y-129852380D01*
X65023809Y-129852380D01*
X64880952Y-129900000D01*
X64785714Y-129995238D01*
X64738095Y-130090476D01*
X64690476Y-130280952D01*
X64690476Y-130423809D01*
X64738095Y-130614285D01*
X64785714Y-130709523D01*
X64880952Y-130804761D01*
X65023809Y-130852380D01*
X65119047Y-130852380D01*
X65261904Y-130804761D01*
X65309523Y-130757142D01*
X65309523Y-130423809D01*
X65119047Y-130423809D01*
X65738095Y-130852380D02*
X65738095Y-129852380D01*
X65976190Y-129852380D01*
X66119047Y-129900000D01*
X66214285Y-129995238D01*
X66261904Y-130090476D01*
X66309523Y-130280952D01*
X66309523Y-130423809D01*
X66261904Y-130614285D01*
X66214285Y-130709523D01*
X66119047Y-130804761D01*
X65976190Y-130852380D01*
X65738095Y-130852380D01*
X62285714Y-130566666D02*
X62761904Y-130566666D01*
X62190476Y-130852380D02*
X62523809Y-129852380D01*
X62857142Y-130852380D01*
X63619047Y-130185714D02*
X63619047Y-130852380D01*
X63380952Y-129804761D02*
X63142857Y-130519047D01*
X63761904Y-130519047D01*
X59685714Y-130566666D02*
X60161904Y-130566666D01*
X59590476Y-130852380D02*
X59923809Y-129852380D01*
X60257142Y-130852380D01*
X61066666Y-129852380D02*
X60590476Y-129852380D01*
X60542857Y-130328571D01*
X60590476Y-130280952D01*
X60685714Y-130233333D01*
X60923809Y-130233333D01*
X61019047Y-130280952D01*
X61066666Y-130328571D01*
X61114285Y-130423809D01*
X61114285Y-130661904D01*
X61066666Y-130757142D01*
X61019047Y-130804761D01*
X60923809Y-130852380D01*
X60685714Y-130852380D01*
X60590476Y-130804761D01*
X60542857Y-130757142D01*
X57285714Y-130566666D02*
X57761904Y-130566666D01*
X57190476Y-130852380D02*
X57523809Y-129852380D01*
X57857142Y-130852380D01*
X58619047Y-129852380D02*
X58428571Y-129852380D01*
X58333333Y-129900000D01*
X58285714Y-129947619D01*
X58190476Y-130090476D01*
X58142857Y-130280952D01*
X58142857Y-130661904D01*
X58190476Y-130757142D01*
X58238095Y-130804761D01*
X58333333Y-130852380D01*
X58523809Y-130852380D01*
X58619047Y-130804761D01*
X58666666Y-130757142D01*
X58714285Y-130661904D01*
X58714285Y-130423809D01*
X58666666Y-130328571D01*
X58619047Y-130280952D01*
X58523809Y-130233333D01*
X58333333Y-130233333D01*
X58238095Y-130280952D01*
X58190476Y-130328571D01*
X58142857Y-130423809D01*
X54685714Y-130566666D02*
X55161904Y-130566666D01*
X54590476Y-130852380D02*
X54923809Y-129852380D01*
X55257142Y-130852380D01*
X55495238Y-129852380D02*
X56161904Y-129852380D01*
X55733333Y-130852380D01*
X51990476Y-130471428D02*
X52752380Y-130471428D01*
X52371428Y-130852380D02*
X52371428Y-130090476D01*
X53085714Y-129852380D02*
X53419047Y-130852380D01*
X53752380Y-129852380D01*
X50061904Y-129900000D02*
X49966666Y-129852380D01*
X49823809Y-129852380D01*
X49680952Y-129900000D01*
X49585714Y-129995238D01*
X49538095Y-130090476D01*
X49490476Y-130280952D01*
X49490476Y-130423809D01*
X49538095Y-130614285D01*
X49585714Y-130709523D01*
X49680952Y-130804761D01*
X49823809Y-130852380D01*
X49919047Y-130852380D01*
X50061904Y-130804761D01*
X50109523Y-130757142D01*
X50109523Y-130423809D01*
X49919047Y-130423809D01*
X50538095Y-130852380D02*
X50538095Y-129852380D01*
X50776190Y-129852380D01*
X50919047Y-129900000D01*
X51014285Y-129995238D01*
X51061904Y-130090476D01*
X51109523Y-130280952D01*
X51109523Y-130423809D01*
X51061904Y-130614285D01*
X51014285Y-130709523D01*
X50919047Y-130804761D01*
X50776190Y-130852380D01*
X50538095Y-130852380D01*
X47633333Y-130757142D02*
X47585714Y-130804761D01*
X47442857Y-130852380D01*
X47347619Y-130852380D01*
X47204761Y-130804761D01*
X47109523Y-130709523D01*
X47061904Y-130614285D01*
X47014285Y-130423809D01*
X47014285Y-130280952D01*
X47061904Y-130090476D01*
X47109523Y-129995238D01*
X47204761Y-129900000D01*
X47347619Y-129852380D01*
X47442857Y-129852380D01*
X47585714Y-129900000D01*
X47633333Y-129947619D01*
X48252380Y-129852380D02*
X48347619Y-129852380D01*
X48442857Y-129900000D01*
X48490476Y-129947619D01*
X48538095Y-130042857D01*
X48585714Y-130233333D01*
X48585714Y-130471428D01*
X48538095Y-130661904D01*
X48490476Y-130757142D01*
X48442857Y-130804761D01*
X48347619Y-130852380D01*
X48252380Y-130852380D01*
X48157142Y-130804761D01*
X48109523Y-130757142D01*
X48061904Y-130661904D01*
X48014285Y-130471428D01*
X48014285Y-130233333D01*
X48061904Y-130042857D01*
X48109523Y-129947619D01*
X48157142Y-129900000D01*
X48252380Y-129852380D01*
X45033333Y-130757142D02*
X44985714Y-130804761D01*
X44842857Y-130852380D01*
X44747619Y-130852380D01*
X44604761Y-130804761D01*
X44509523Y-130709523D01*
X44461904Y-130614285D01*
X44414285Y-130423809D01*
X44414285Y-130280952D01*
X44461904Y-130090476D01*
X44509523Y-129995238D01*
X44604761Y-129900000D01*
X44747619Y-129852380D01*
X44842857Y-129852380D01*
X44985714Y-129900000D01*
X45033333Y-129947619D01*
X45985714Y-130852380D02*
X45414285Y-130852380D01*
X45700000Y-130852380D02*
X45700000Y-129852380D01*
X45604761Y-129995238D01*
X45509523Y-130090476D01*
X45414285Y-130138095D01*
X42533333Y-130757142D02*
X42485714Y-130804761D01*
X42342857Y-130852380D01*
X42247619Y-130852380D01*
X42104761Y-130804761D01*
X42009523Y-130709523D01*
X41961904Y-130614285D01*
X41914285Y-130423809D01*
X41914285Y-130280952D01*
X41961904Y-130090476D01*
X42009523Y-129995238D01*
X42104761Y-129900000D01*
X42247619Y-129852380D01*
X42342857Y-129852380D01*
X42485714Y-129900000D01*
X42533333Y-129947619D01*
X42914285Y-129947619D02*
X42961904Y-129900000D01*
X43057142Y-129852380D01*
X43295238Y-129852380D01*
X43390476Y-129900000D01*
X43438095Y-129947619D01*
X43485714Y-130042857D01*
X43485714Y-130138095D01*
X43438095Y-130280952D01*
X42866666Y-130852380D01*
X43485714Y-130852380D01*
X40033333Y-130757142D02*
X39985714Y-130804761D01*
X39842857Y-130852380D01*
X39747619Y-130852380D01*
X39604761Y-130804761D01*
X39509523Y-130709523D01*
X39461904Y-130614285D01*
X39414285Y-130423809D01*
X39414285Y-130280952D01*
X39461904Y-130090476D01*
X39509523Y-129995238D01*
X39604761Y-129900000D01*
X39747619Y-129852380D01*
X39842857Y-129852380D01*
X39985714Y-129900000D01*
X40033333Y-129947619D01*
X40366666Y-129852380D02*
X40985714Y-129852380D01*
X40652380Y-130233333D01*
X40795238Y-130233333D01*
X40890476Y-130280952D01*
X40938095Y-130328571D01*
X40985714Y-130423809D01*
X40985714Y-130661904D01*
X40938095Y-130757142D01*
X40890476Y-130804761D01*
X40795238Y-130852380D01*
X40509523Y-130852380D01*
X40414285Y-130804761D01*
X40366666Y-130757142D01*
X36790476Y-130471428D02*
X37552380Y-130471428D01*
X37171428Y-130852380D02*
X37171428Y-130090476D01*
X37885714Y-129852380D02*
X38219047Y-130852380D01*
X38552380Y-129852380D01*
X34861904Y-129900000D02*
X34766666Y-129852380D01*
X34623809Y-129852380D01*
X34480952Y-129900000D01*
X34385714Y-129995238D01*
X34338095Y-130090476D01*
X34290476Y-130280952D01*
X34290476Y-130423809D01*
X34338095Y-130614285D01*
X34385714Y-130709523D01*
X34480952Y-130804761D01*
X34623809Y-130852380D01*
X34719047Y-130852380D01*
X34861904Y-130804761D01*
X34909523Y-130757142D01*
X34909523Y-130423809D01*
X34719047Y-130423809D01*
X35338095Y-130852380D02*
X35338095Y-129852380D01*
X35576190Y-129852380D01*
X35719047Y-129900000D01*
X35814285Y-129995238D01*
X35861904Y-130090476D01*
X35909523Y-130280952D01*
X35909523Y-130423809D01*
X35861904Y-130614285D01*
X35814285Y-130709523D01*
X35719047Y-130804761D01*
X35576190Y-130852380D01*
X35338095Y-130852380D01*
X34761904Y-86200000D02*
X34666666Y-86152380D01*
X34523809Y-86152380D01*
X34380952Y-86200000D01*
X34285714Y-86295238D01*
X34238095Y-86390476D01*
X34190476Y-86580952D01*
X34190476Y-86723809D01*
X34238095Y-86914285D01*
X34285714Y-87009523D01*
X34380952Y-87104761D01*
X34523809Y-87152380D01*
X34619047Y-87152380D01*
X34761904Y-87104761D01*
X34809523Y-87057142D01*
X34809523Y-86723809D01*
X34619047Y-86723809D01*
X35238095Y-87152380D02*
X35238095Y-86152380D01*
X35476190Y-86152380D01*
X35619047Y-86200000D01*
X35714285Y-86295238D01*
X35761904Y-86390476D01*
X35809523Y-86580952D01*
X35809523Y-86723809D01*
X35761904Y-86914285D01*
X35714285Y-87009523D01*
X35619047Y-87104761D01*
X35476190Y-87152380D01*
X35238095Y-87152380D01*
X36790476Y-86771428D02*
X37552380Y-86771428D01*
X37171428Y-87152380D02*
X37171428Y-86390476D01*
X37885714Y-86152380D02*
X38219047Y-87152380D01*
X38552380Y-86152380D01*
X118090476Y-86771428D02*
X118852380Y-86771428D01*
X118471428Y-87152380D02*
X118471428Y-86390476D01*
X119185714Y-86152380D02*
X119519047Y-87152380D01*
X119852380Y-86152380D01*
X116161904Y-86200000D02*
X116066666Y-86152380D01*
X115923809Y-86152380D01*
X115780952Y-86200000D01*
X115685714Y-86295238D01*
X115638095Y-86390476D01*
X115590476Y-86580952D01*
X115590476Y-86723809D01*
X115638095Y-86914285D01*
X115685714Y-87009523D01*
X115780952Y-87104761D01*
X115923809Y-87152380D01*
X116019047Y-87152380D01*
X116161904Y-87104761D01*
X116209523Y-87057142D01*
X116209523Y-86723809D01*
X116019047Y-86723809D01*
X116638095Y-87152380D02*
X116638095Y-86152380D01*
X116876190Y-86152380D01*
X117019047Y-86200000D01*
X117114285Y-86295238D01*
X117161904Y-86390476D01*
X117209523Y-86580952D01*
X117209523Y-86723809D01*
X117161904Y-86914285D01*
X117114285Y-87009523D01*
X117019047Y-87104761D01*
X116876190Y-87152380D01*
X116638095Y-87152380D01*
X113109523Y-86628571D02*
X113442857Y-86628571D01*
X113585714Y-87152380D02*
X113109523Y-87152380D01*
X113109523Y-86152380D01*
X113585714Y-86152380D01*
X113919047Y-86152380D02*
X114585714Y-86152380D01*
X114157142Y-87152380D01*
X110609523Y-86628571D02*
X110942857Y-86628571D01*
X111085714Y-87152380D02*
X110609523Y-87152380D01*
X110609523Y-86152380D01*
X111085714Y-86152380D01*
X111942857Y-86152380D02*
X111752380Y-86152380D01*
X111657142Y-86200000D01*
X111609523Y-86247619D01*
X111514285Y-86390476D01*
X111466666Y-86580952D01*
X111466666Y-86961904D01*
X111514285Y-87057142D01*
X111561904Y-87104761D01*
X111657142Y-87152380D01*
X111847619Y-87152380D01*
X111942857Y-87104761D01*
X111990476Y-87057142D01*
X112038095Y-86961904D01*
X112038095Y-86723809D01*
X111990476Y-86628571D01*
X111942857Y-86580952D01*
X111847619Y-86533333D01*
X111657142Y-86533333D01*
X111561904Y-86580952D01*
X111514285Y-86628571D01*
X111466666Y-86723809D01*
X108009523Y-86628571D02*
X108342857Y-86628571D01*
X108485714Y-87152380D02*
X108009523Y-87152380D01*
X108009523Y-86152380D01*
X108485714Y-86152380D01*
X109390476Y-86152380D02*
X108914285Y-86152380D01*
X108866666Y-86628571D01*
X108914285Y-86580952D01*
X109009523Y-86533333D01*
X109247619Y-86533333D01*
X109342857Y-86580952D01*
X109390476Y-86628571D01*
X109438095Y-86723809D01*
X109438095Y-86961904D01*
X109390476Y-87057142D01*
X109342857Y-87104761D01*
X109247619Y-87152380D01*
X109009523Y-87152380D01*
X108914285Y-87104761D01*
X108866666Y-87057142D01*
X105409523Y-86628571D02*
X105742857Y-86628571D01*
X105885714Y-87152380D02*
X105409523Y-87152380D01*
X105409523Y-86152380D01*
X105885714Y-86152380D01*
X106742857Y-86485714D02*
X106742857Y-87152380D01*
X106504761Y-86104761D02*
X106266666Y-86819047D01*
X106885714Y-86819047D01*
X102790476Y-86771428D02*
X103552380Y-86771428D01*
X103171428Y-87152380D02*
X103171428Y-86390476D01*
X103885714Y-86152380D02*
X104219047Y-87152380D01*
X104552380Y-86152380D01*
X100861904Y-86200000D02*
X100766666Y-86152380D01*
X100623809Y-86152380D01*
X100480952Y-86200000D01*
X100385714Y-86295238D01*
X100338095Y-86390476D01*
X100290476Y-86580952D01*
X100290476Y-86723809D01*
X100338095Y-86914285D01*
X100385714Y-87009523D01*
X100480952Y-87104761D01*
X100623809Y-87152380D01*
X100719047Y-87152380D01*
X100861904Y-87104761D01*
X100909523Y-87057142D01*
X100909523Y-86723809D01*
X100719047Y-86723809D01*
X101338095Y-87152380D02*
X101338095Y-86152380D01*
X101576190Y-86152380D01*
X101719047Y-86200000D01*
X101814285Y-86295238D01*
X101861904Y-86390476D01*
X101909523Y-86580952D01*
X101909523Y-86723809D01*
X101861904Y-86914285D01*
X101814285Y-87009523D01*
X101719047Y-87104761D01*
X101576190Y-87152380D01*
X101338095Y-87152380D01*
X97809523Y-86628571D02*
X98142857Y-86628571D01*
X98285714Y-87152380D02*
X97809523Y-87152380D01*
X97809523Y-86152380D01*
X98285714Y-86152380D01*
X98619047Y-86152380D02*
X99238095Y-86152380D01*
X98904761Y-86533333D01*
X99047619Y-86533333D01*
X99142857Y-86580952D01*
X99190476Y-86628571D01*
X99238095Y-86723809D01*
X99238095Y-86961904D01*
X99190476Y-87057142D01*
X99142857Y-87104761D01*
X99047619Y-87152380D01*
X98761904Y-87152380D01*
X98666666Y-87104761D01*
X98619047Y-87057142D01*
X95309523Y-86628571D02*
X95642857Y-86628571D01*
X95785714Y-87152380D02*
X95309523Y-87152380D01*
X95309523Y-86152380D01*
X95785714Y-86152380D01*
X96166666Y-86247619D02*
X96214285Y-86200000D01*
X96309523Y-86152380D01*
X96547619Y-86152380D01*
X96642857Y-86200000D01*
X96690476Y-86247619D01*
X96738095Y-86342857D01*
X96738095Y-86438095D01*
X96690476Y-86580952D01*
X96119047Y-87152380D01*
X96738095Y-87152380D01*
X92709523Y-86628571D02*
X93042857Y-86628571D01*
X93185714Y-87152380D02*
X92709523Y-87152380D01*
X92709523Y-86152380D01*
X93185714Y-86152380D01*
X94138095Y-87152380D02*
X93566666Y-87152380D01*
X93852380Y-87152380D02*
X93852380Y-86152380D01*
X93757142Y-86295238D01*
X93661904Y-86390476D01*
X93566666Y-86438095D01*
X90209523Y-86628571D02*
X90542857Y-86628571D01*
X90685714Y-87152380D02*
X90209523Y-87152380D01*
X90209523Y-86152380D01*
X90685714Y-86152380D01*
X91304761Y-86152380D02*
X91400000Y-86152380D01*
X91495238Y-86200000D01*
X91542857Y-86247619D01*
X91590476Y-86342857D01*
X91638095Y-86533333D01*
X91638095Y-86771428D01*
X91590476Y-86961904D01*
X91542857Y-87057142D01*
X91495238Y-87104761D01*
X91400000Y-87152380D01*
X91304761Y-87152380D01*
X91209523Y-87104761D01*
X91161904Y-87057142D01*
X91114285Y-86961904D01*
X91066666Y-86771428D01*
X91066666Y-86533333D01*
X91114285Y-86342857D01*
X91161904Y-86247619D01*
X91209523Y-86200000D01*
X91304761Y-86152380D01*
X87590476Y-86771428D02*
X88352380Y-86771428D01*
X87971428Y-87152380D02*
X87971428Y-86390476D01*
X88685714Y-86152380D02*
X89019047Y-87152380D01*
X89352380Y-86152380D01*
X85661904Y-86200000D02*
X85566666Y-86152380D01*
X85423809Y-86152380D01*
X85280952Y-86200000D01*
X85185714Y-86295238D01*
X85138095Y-86390476D01*
X85090476Y-86580952D01*
X85090476Y-86723809D01*
X85138095Y-86914285D01*
X85185714Y-87009523D01*
X85280952Y-87104761D01*
X85423809Y-87152380D01*
X85519047Y-87152380D01*
X85661904Y-87104761D01*
X85709523Y-87057142D01*
X85709523Y-86723809D01*
X85519047Y-86723809D01*
X86138095Y-87152380D02*
X86138095Y-86152380D01*
X86376190Y-86152380D01*
X86519047Y-86200000D01*
X86614285Y-86295238D01*
X86661904Y-86390476D01*
X86709523Y-86580952D01*
X86709523Y-86723809D01*
X86661904Y-86914285D01*
X86614285Y-87009523D01*
X86519047Y-87104761D01*
X86376190Y-87152380D01*
X86138095Y-87152380D01*
X82561904Y-87152380D02*
X82561904Y-86152380D01*
X82800000Y-86152380D01*
X82942857Y-86200000D01*
X83038095Y-86295238D01*
X83085714Y-86390476D01*
X83133333Y-86580952D01*
X83133333Y-86723809D01*
X83085714Y-86914285D01*
X83038095Y-87009523D01*
X82942857Y-87104761D01*
X82800000Y-87152380D01*
X82561904Y-87152380D01*
X83466666Y-86152380D02*
X84133333Y-86152380D01*
X83704761Y-87152380D01*
X80061904Y-87152380D02*
X80061904Y-86152380D01*
X80300000Y-86152380D01*
X80442857Y-86200000D01*
X80538095Y-86295238D01*
X80585714Y-86390476D01*
X80633333Y-86580952D01*
X80633333Y-86723809D01*
X80585714Y-86914285D01*
X80538095Y-87009523D01*
X80442857Y-87104761D01*
X80300000Y-87152380D01*
X80061904Y-87152380D01*
X81490476Y-86152380D02*
X81300000Y-86152380D01*
X81204761Y-86200000D01*
X81157142Y-86247619D01*
X81061904Y-86390476D01*
X81014285Y-86580952D01*
X81014285Y-86961904D01*
X81061904Y-87057142D01*
X81109523Y-87104761D01*
X81204761Y-87152380D01*
X81395238Y-87152380D01*
X81490476Y-87104761D01*
X81538095Y-87057142D01*
X81585714Y-86961904D01*
X81585714Y-86723809D01*
X81538095Y-86628571D01*
X81490476Y-86580952D01*
X81395238Y-86533333D01*
X81204761Y-86533333D01*
X81109523Y-86580952D01*
X81061904Y-86628571D01*
X81014285Y-86723809D01*
X77461904Y-87152380D02*
X77461904Y-86152380D01*
X77700000Y-86152380D01*
X77842857Y-86200000D01*
X77938095Y-86295238D01*
X77985714Y-86390476D01*
X78033333Y-86580952D01*
X78033333Y-86723809D01*
X77985714Y-86914285D01*
X77938095Y-87009523D01*
X77842857Y-87104761D01*
X77700000Y-87152380D01*
X77461904Y-87152380D01*
X78938095Y-86152380D02*
X78461904Y-86152380D01*
X78414285Y-86628571D01*
X78461904Y-86580952D01*
X78557142Y-86533333D01*
X78795238Y-86533333D01*
X78890476Y-86580952D01*
X78938095Y-86628571D01*
X78985714Y-86723809D01*
X78985714Y-86961904D01*
X78938095Y-87057142D01*
X78890476Y-87104761D01*
X78795238Y-87152380D01*
X78557142Y-87152380D01*
X78461904Y-87104761D01*
X78414285Y-87057142D01*
X74961904Y-87152380D02*
X74961904Y-86152380D01*
X75200000Y-86152380D01*
X75342857Y-86200000D01*
X75438095Y-86295238D01*
X75485714Y-86390476D01*
X75533333Y-86580952D01*
X75533333Y-86723809D01*
X75485714Y-86914285D01*
X75438095Y-87009523D01*
X75342857Y-87104761D01*
X75200000Y-87152380D01*
X74961904Y-87152380D01*
X76390476Y-86485714D02*
X76390476Y-87152380D01*
X76152380Y-86104761D02*
X75914285Y-86819047D01*
X76533333Y-86819047D01*
X72290476Y-86771428D02*
X73052380Y-86771428D01*
X72671428Y-87152380D02*
X72671428Y-86390476D01*
X73385714Y-86152380D02*
X73719047Y-87152380D01*
X74052380Y-86152380D01*
X69790476Y-86771428D02*
X70552380Y-86771428D01*
X70171428Y-87152380D02*
X70171428Y-86390476D01*
X70885714Y-86152380D02*
X71219047Y-87152380D01*
X71552380Y-86152380D01*
X67861904Y-86200000D02*
X67766666Y-86152380D01*
X67623809Y-86152380D01*
X67480952Y-86200000D01*
X67385714Y-86295238D01*
X67338095Y-86390476D01*
X67290476Y-86580952D01*
X67290476Y-86723809D01*
X67338095Y-86914285D01*
X67385714Y-87009523D01*
X67480952Y-87104761D01*
X67623809Y-87152380D01*
X67719047Y-87152380D01*
X67861904Y-87104761D01*
X67909523Y-87057142D01*
X67909523Y-86723809D01*
X67719047Y-86723809D01*
X68338095Y-87152380D02*
X68338095Y-86152380D01*
X68576190Y-86152380D01*
X68719047Y-86200000D01*
X68814285Y-86295238D01*
X68861904Y-86390476D01*
X68909523Y-86580952D01*
X68909523Y-86723809D01*
X68861904Y-86914285D01*
X68814285Y-87009523D01*
X68719047Y-87104761D01*
X68576190Y-87152380D01*
X68338095Y-87152380D01*
X65261904Y-86200000D02*
X65166666Y-86152380D01*
X65023809Y-86152380D01*
X64880952Y-86200000D01*
X64785714Y-86295238D01*
X64738095Y-86390476D01*
X64690476Y-86580952D01*
X64690476Y-86723809D01*
X64738095Y-86914285D01*
X64785714Y-87009523D01*
X64880952Y-87104761D01*
X65023809Y-87152380D01*
X65119047Y-87152380D01*
X65261904Y-87104761D01*
X65309523Y-87057142D01*
X65309523Y-86723809D01*
X65119047Y-86723809D01*
X65738095Y-87152380D02*
X65738095Y-86152380D01*
X65976190Y-86152380D01*
X66119047Y-86200000D01*
X66214285Y-86295238D01*
X66261904Y-86390476D01*
X66309523Y-86580952D01*
X66309523Y-86723809D01*
X66261904Y-86914285D01*
X66214285Y-87009523D01*
X66119047Y-87104761D01*
X65976190Y-87152380D01*
X65738095Y-87152380D01*
X62261904Y-87152380D02*
X62261904Y-86152380D01*
X62500000Y-86152380D01*
X62642857Y-86200000D01*
X62738095Y-86295238D01*
X62785714Y-86390476D01*
X62833333Y-86580952D01*
X62833333Y-86723809D01*
X62785714Y-86914285D01*
X62738095Y-87009523D01*
X62642857Y-87104761D01*
X62500000Y-87152380D01*
X62261904Y-87152380D01*
X63166666Y-86152380D02*
X63785714Y-86152380D01*
X63452380Y-86533333D01*
X63595238Y-86533333D01*
X63690476Y-86580952D01*
X63738095Y-86628571D01*
X63785714Y-86723809D01*
X63785714Y-86961904D01*
X63738095Y-87057142D01*
X63690476Y-87104761D01*
X63595238Y-87152380D01*
X63309523Y-87152380D01*
X63214285Y-87104761D01*
X63166666Y-87057142D01*
X59761904Y-87152380D02*
X59761904Y-86152380D01*
X60000000Y-86152380D01*
X60142857Y-86200000D01*
X60238095Y-86295238D01*
X60285714Y-86390476D01*
X60333333Y-86580952D01*
X60333333Y-86723809D01*
X60285714Y-86914285D01*
X60238095Y-87009523D01*
X60142857Y-87104761D01*
X60000000Y-87152380D01*
X59761904Y-87152380D01*
X60714285Y-86247619D02*
X60761904Y-86200000D01*
X60857142Y-86152380D01*
X61095238Y-86152380D01*
X61190476Y-86200000D01*
X61238095Y-86247619D01*
X61285714Y-86342857D01*
X61285714Y-86438095D01*
X61238095Y-86580952D01*
X60666666Y-87152380D01*
X61285714Y-87152380D01*
X52040476Y-86771428D02*
X52802380Y-86771428D01*
X52421428Y-87152380D02*
X52421428Y-86390476D01*
X53135714Y-86152380D02*
X53469047Y-87152380D01*
X53802380Y-86152380D01*
X54661904Y-87152380D02*
X54661904Y-86152380D01*
X54900000Y-86152380D01*
X55042857Y-86200000D01*
X55138095Y-86295238D01*
X55185714Y-86390476D01*
X55233333Y-86580952D01*
X55233333Y-86723809D01*
X55185714Y-86914285D01*
X55138095Y-87009523D01*
X55042857Y-87104761D01*
X54900000Y-87152380D01*
X54661904Y-87152380D01*
X55852380Y-86152380D02*
X55947619Y-86152380D01*
X56042857Y-86200000D01*
X56090476Y-86247619D01*
X56138095Y-86342857D01*
X56185714Y-86533333D01*
X56185714Y-86771428D01*
X56138095Y-86961904D01*
X56090476Y-87057142D01*
X56042857Y-87104761D01*
X55947619Y-87152380D01*
X55852380Y-87152380D01*
X55757142Y-87104761D01*
X55709523Y-87057142D01*
X55661904Y-86961904D01*
X55614285Y-86771428D01*
X55614285Y-86533333D01*
X55661904Y-86342857D01*
X55709523Y-86247619D01*
X55757142Y-86200000D01*
X55852380Y-86152380D01*
X50061904Y-86200000D02*
X49966666Y-86152380D01*
X49823809Y-86152380D01*
X49680952Y-86200000D01*
X49585714Y-86295238D01*
X49538095Y-86390476D01*
X49490476Y-86580952D01*
X49490476Y-86723809D01*
X49538095Y-86914285D01*
X49585714Y-87009523D01*
X49680952Y-87104761D01*
X49823809Y-87152380D01*
X49919047Y-87152380D01*
X50061904Y-87104761D01*
X50109523Y-87057142D01*
X50109523Y-86723809D01*
X49919047Y-86723809D01*
X50538095Y-87152380D02*
X50538095Y-86152380D01*
X50776190Y-86152380D01*
X50919047Y-86200000D01*
X51014285Y-86295238D01*
X51061904Y-86390476D01*
X51109523Y-86580952D01*
X51109523Y-86723809D01*
X51061904Y-86914285D01*
X51014285Y-87009523D01*
X50919047Y-87104761D01*
X50776190Y-87152380D01*
X50538095Y-87152380D01*
X57161904Y-87152380D02*
X57161904Y-86152380D01*
X57400000Y-86152380D01*
X57542857Y-86200000D01*
X57638095Y-86295238D01*
X57685714Y-86390476D01*
X57733333Y-86580952D01*
X57733333Y-86723809D01*
X57685714Y-86914285D01*
X57638095Y-87009523D01*
X57542857Y-87104761D01*
X57400000Y-87152380D01*
X57161904Y-87152380D01*
X58685714Y-87152380D02*
X58114285Y-87152380D01*
X58400000Y-87152380D02*
X58400000Y-86152380D01*
X58304761Y-86295238D01*
X58209523Y-86390476D01*
X58114285Y-86438095D01*
X47583333Y-87057142D02*
X47535714Y-87104761D01*
X47392857Y-87152380D01*
X47297619Y-87152380D01*
X47154761Y-87104761D01*
X47059523Y-87009523D01*
X47011904Y-86914285D01*
X46964285Y-86723809D01*
X46964285Y-86580952D01*
X47011904Y-86390476D01*
X47059523Y-86295238D01*
X47154761Y-86200000D01*
X47297619Y-86152380D01*
X47392857Y-86152380D01*
X47535714Y-86200000D01*
X47583333Y-86247619D01*
X47916666Y-86152380D02*
X48583333Y-86152380D01*
X48154761Y-87152380D01*
X45033333Y-87057142D02*
X44985714Y-87104761D01*
X44842857Y-87152380D01*
X44747619Y-87152380D01*
X44604761Y-87104761D01*
X44509523Y-87009523D01*
X44461904Y-86914285D01*
X44414285Y-86723809D01*
X44414285Y-86580952D01*
X44461904Y-86390476D01*
X44509523Y-86295238D01*
X44604761Y-86200000D01*
X44747619Y-86152380D01*
X44842857Y-86152380D01*
X44985714Y-86200000D01*
X45033333Y-86247619D01*
X45890476Y-86152380D02*
X45700000Y-86152380D01*
X45604761Y-86200000D01*
X45557142Y-86247619D01*
X45461904Y-86390476D01*
X45414285Y-86580952D01*
X45414285Y-86961904D01*
X45461904Y-87057142D01*
X45509523Y-87104761D01*
X45604761Y-87152380D01*
X45795238Y-87152380D01*
X45890476Y-87104761D01*
X45938095Y-87057142D01*
X45985714Y-86961904D01*
X45985714Y-86723809D01*
X45938095Y-86628571D01*
X45890476Y-86580952D01*
X45795238Y-86533333D01*
X45604761Y-86533333D01*
X45509523Y-86580952D01*
X45461904Y-86628571D01*
X45414285Y-86723809D01*
X42483333Y-87057142D02*
X42435714Y-87104761D01*
X42292857Y-87152380D01*
X42197619Y-87152380D01*
X42054761Y-87104761D01*
X41959523Y-87009523D01*
X41911904Y-86914285D01*
X41864285Y-86723809D01*
X41864285Y-86580952D01*
X41911904Y-86390476D01*
X41959523Y-86295238D01*
X42054761Y-86200000D01*
X42197619Y-86152380D01*
X42292857Y-86152380D01*
X42435714Y-86200000D01*
X42483333Y-86247619D01*
X43388095Y-86152380D02*
X42911904Y-86152380D01*
X42864285Y-86628571D01*
X42911904Y-86580952D01*
X43007142Y-86533333D01*
X43245238Y-86533333D01*
X43340476Y-86580952D01*
X43388095Y-86628571D01*
X43435714Y-86723809D01*
X43435714Y-86961904D01*
X43388095Y-87057142D01*
X43340476Y-87104761D01*
X43245238Y-87152380D01*
X43007142Y-87152380D01*
X42911904Y-87104761D01*
X42864285Y-87057142D01*
X39983333Y-87057142D02*
X39935714Y-87104761D01*
X39792857Y-87152380D01*
X39697619Y-87152380D01*
X39554761Y-87104761D01*
X39459523Y-87009523D01*
X39411904Y-86914285D01*
X39364285Y-86723809D01*
X39364285Y-86580952D01*
X39411904Y-86390476D01*
X39459523Y-86295238D01*
X39554761Y-86200000D01*
X39697619Y-86152380D01*
X39792857Y-86152380D01*
X39935714Y-86200000D01*
X39983333Y-86247619D01*
X40840476Y-86485714D02*
X40840476Y-87152380D01*
X40602380Y-86104761D02*
X40364285Y-86819047D01*
X40983333Y-86819047D01*
D12*
X33400000Y-130400000D02*
X33400000Y-86600000D01*
X120390000Y-127570000D02*
X33390000Y-127570000D01*
X120400000Y-86600000D02*
X120400000Y-130400000D01*
X33390000Y-89470000D02*
X120390000Y-89470000D01*
D10*
X55433333Y-138483333D02*
X55400000Y-138450000D01*
X55333333Y-138350000D01*
X55300000Y-138283333D01*
X55266666Y-138183333D01*
X55233333Y-138016666D01*
X55233333Y-137883333D01*
X55266666Y-137716666D01*
X55300000Y-137616666D01*
X55333333Y-137550000D01*
X55400000Y-137450000D01*
X55433333Y-137416666D01*
X55700000Y-138216666D02*
X55700000Y-137750000D01*
X55700000Y-137883333D02*
X55733333Y-137816666D01*
X55766666Y-137783333D01*
X55833333Y-137750000D01*
X55900000Y-137750000D01*
X56400000Y-138183333D02*
X56333333Y-138216666D01*
X56200000Y-138216666D01*
X56133333Y-138183333D01*
X56100000Y-138116666D01*
X56100000Y-137850000D01*
X56133333Y-137783333D01*
X56200000Y-137750000D01*
X56333333Y-137750000D01*
X56400000Y-137783333D01*
X56433333Y-137850000D01*
X56433333Y-137916666D01*
X56100000Y-137983333D01*
X56666666Y-137750000D02*
X56833333Y-138216666D01*
X57000000Y-137750000D01*
X57766666Y-137583333D02*
X57800000Y-137550000D01*
X57866666Y-137516666D01*
X58033333Y-137516666D01*
X58100000Y-137550000D01*
X58133333Y-137583333D01*
X58166666Y-137650000D01*
X58166666Y-137716666D01*
X58133333Y-137816666D01*
X57733333Y-138216666D01*
X58166666Y-138216666D01*
X58466666Y-138150000D02*
X58500000Y-138183333D01*
X58466666Y-138216666D01*
X58433333Y-138183333D01*
X58466666Y-138150000D01*
X58466666Y-138216666D01*
X59100000Y-138216666D02*
X59100000Y-137850000D01*
X59066666Y-137783333D01*
X59000000Y-137750000D01*
X58866666Y-137750000D01*
X58800000Y-137783333D01*
X59100000Y-138183333D02*
X59033333Y-138216666D01*
X58866666Y-138216666D01*
X58800000Y-138183333D01*
X58766666Y-138116666D01*
X58766666Y-138050000D01*
X58800000Y-137983333D01*
X58866666Y-137950000D01*
X59033333Y-137950000D01*
X59100000Y-137916666D01*
X59366666Y-138483333D02*
X59400000Y-138450000D01*
X59466666Y-138350000D01*
X59500000Y-138283333D01*
X59533333Y-138183333D01*
X59566666Y-138016666D01*
X59566666Y-137883333D01*
X59533333Y-137716666D01*
X59500000Y-137616666D01*
X59466666Y-137550000D01*
X59400000Y-137450000D01*
X59366666Y-137416666D01*
D11*
X45647619Y-138452380D02*
X45647619Y-137452380D01*
X46028571Y-137452380D01*
X46123809Y-137500000D01*
X46171428Y-137547619D01*
X46219047Y-137642857D01*
X46219047Y-137785714D01*
X46171428Y-137880952D01*
X46123809Y-137928571D01*
X46028571Y-137976190D01*
X45647619Y-137976190D01*
X46647619Y-138452380D02*
X46647619Y-137785714D01*
X46647619Y-137976190D02*
X46695238Y-137880952D01*
X46742857Y-137833333D01*
X46838095Y-137785714D01*
X46933333Y-137785714D01*
X47409523Y-138452380D02*
X47314285Y-138404761D01*
X47266666Y-138357142D01*
X47219047Y-138261904D01*
X47219047Y-137976190D01*
X47266666Y-137880952D01*
X47314285Y-137833333D01*
X47409523Y-137785714D01*
X47552380Y-137785714D01*
X47647619Y-137833333D01*
X47695238Y-137880952D01*
X47742857Y-137976190D01*
X47742857Y-138261904D01*
X47695238Y-138357142D01*
X47647619Y-138404761D01*
X47552380Y-138452380D01*
X47409523Y-138452380D01*
X48028571Y-137785714D02*
X48409523Y-137785714D01*
X48171428Y-137452380D02*
X48171428Y-138309523D01*
X48219047Y-138404761D01*
X48314285Y-138452380D01*
X48409523Y-138452380D01*
X48885714Y-138452380D02*
X48790476Y-138404761D01*
X48742857Y-138357142D01*
X48695238Y-138261904D01*
X48695238Y-137976190D01*
X48742857Y-137880952D01*
X48790476Y-137833333D01*
X48885714Y-137785714D01*
X49028571Y-137785714D01*
X49123809Y-137833333D01*
X49171428Y-137880952D01*
X49219047Y-137976190D01*
X49219047Y-138261904D01*
X49171428Y-138357142D01*
X49123809Y-138404761D01*
X49028571Y-138452380D01*
X48885714Y-138452380D01*
X50361904Y-138404761D02*
X50504761Y-138452380D01*
X50742857Y-138452380D01*
X50838095Y-138404761D01*
X50885714Y-138357142D01*
X50933333Y-138261904D01*
X50933333Y-138166666D01*
X50885714Y-138071428D01*
X50838095Y-138023809D01*
X50742857Y-137976190D01*
X50552380Y-137928571D01*
X50457142Y-137880952D01*
X50409523Y-137833333D01*
X50361904Y-137738095D01*
X50361904Y-137642857D01*
X50409523Y-137547619D01*
X50457142Y-137500000D01*
X50552380Y-137452380D01*
X50790476Y-137452380D01*
X50933333Y-137500000D01*
X51361904Y-138452380D02*
X51361904Y-137452380D01*
X51790476Y-138452380D02*
X51790476Y-137928571D01*
X51742857Y-137833333D01*
X51647619Y-137785714D01*
X51504761Y-137785714D01*
X51409523Y-137833333D01*
X51361904Y-137880952D01*
X52266666Y-138452380D02*
X52266666Y-137785714D01*
X52266666Y-137452380D02*
X52219047Y-137500000D01*
X52266666Y-137547619D01*
X52314285Y-137500000D01*
X52266666Y-137452380D01*
X52266666Y-137547619D01*
X53123809Y-138404761D02*
X53028571Y-138452380D01*
X52838095Y-138452380D01*
X52742857Y-138404761D01*
X52695238Y-138309523D01*
X52695238Y-137928571D01*
X52742857Y-137833333D01*
X52838095Y-137785714D01*
X53028571Y-137785714D01*
X53123809Y-137833333D01*
X53171428Y-137928571D01*
X53171428Y-138023809D01*
X52695238Y-138119047D01*
X53742857Y-138452380D02*
X53647619Y-138404761D01*
X53600000Y-138309523D01*
X53600000Y-137452380D01*
X54552380Y-138452380D02*
X54552380Y-137452380D01*
X54552380Y-138404761D02*
X54457142Y-138452380D01*
X54266666Y-138452380D01*
X54171428Y-138404761D01*
X54123809Y-138357142D01*
X54076190Y-138261904D01*
X54076190Y-137976190D01*
X54123809Y-137880952D01*
X54171428Y-137833333D01*
X54266666Y-137785714D01*
X54457142Y-137785714D01*
X54552380Y-137833333D01*
D13*
G36*
X52867625Y-133757327D02*
X53011182Y-133923758D01*
X53085800Y-134235418D01*
X53099333Y-134522380D01*
X53092699Y-134821439D01*
X53066253Y-134987527D01*
X53010179Y-135056716D01*
X52951166Y-135066821D01*
X52868838Y-135042006D01*
X52823618Y-134943067D01*
X52805309Y-134733587D01*
X52803000Y-134537654D01*
X52797737Y-134246710D01*
X52772383Y-134084086D01*
X52712584Y-134008864D01*
X52607620Y-133980638D01*
X52466450Y-133917151D01*
X52464183Y-133820616D01*
X52592213Y-133741135D01*
X52650911Y-133728660D01*
X52867625Y-133757327D01*
X52867625Y-133757327D01*
G37*
X52867625Y-133757327D02*
X53011182Y-133923758D01*
X53085800Y-134235418D01*
X53099333Y-134522380D01*
X53092699Y-134821439D01*
X53066253Y-134987527D01*
X53010179Y-135056716D01*
X52951166Y-135066821D01*
X52868838Y-135042006D01*
X52823618Y-134943067D01*
X52805309Y-134733587D01*
X52803000Y-134537654D01*
X52797737Y-134246710D01*
X52772383Y-134084086D01*
X52712584Y-134008864D01*
X52607620Y-133980638D01*
X52466450Y-133917151D01*
X52464183Y-133820616D01*
X52592213Y-133741135D01*
X52650911Y-133728660D01*
X52867625Y-133757327D01*
G36*
X52280870Y-133737027D02*
X52339002Y-133831444D01*
X52363320Y-134024041D01*
X52359793Y-134343679D01*
X52351275Y-134525975D01*
X52327021Y-134828461D01*
X52287250Y-134995545D01*
X52221353Y-135061087D01*
X52181942Y-135066483D01*
X52110758Y-135042762D01*
X52068040Y-134950224D01*
X52047047Y-134756467D01*
X52041036Y-134429089D01*
X52041000Y-134389077D01*
X52045848Y-134047347D01*
X52064934Y-133842285D01*
X52105073Y-133741391D01*
X52173079Y-133712163D01*
X52182958Y-133711927D01*
X52280870Y-133737027D01*
X52280870Y-133737027D01*
G37*
X52280870Y-133737027D02*
X52339002Y-133831444D01*
X52363320Y-134024041D01*
X52359793Y-134343679D01*
X52351275Y-134525975D01*
X52327021Y-134828461D01*
X52287250Y-134995545D01*
X52221353Y-135061087D01*
X52181942Y-135066483D01*
X52110758Y-135042762D01*
X52068040Y-134950224D01*
X52047047Y-134756467D01*
X52041036Y-134429089D01*
X52041000Y-134389077D01*
X52045848Y-134047347D01*
X52064934Y-133842285D01*
X52105073Y-133741391D01*
X52173079Y-133712163D01*
X52182958Y-133711927D01*
X52280870Y-133737027D01*
G36*
X51487875Y-133772935D02*
X51647328Y-133966913D01*
X51731514Y-134305106D01*
X51744666Y-134563063D01*
X51744666Y-135037782D01*
X51316873Y-135047526D01*
X51034745Y-135037585D01*
X50883239Y-134985281D01*
X50837732Y-134923460D01*
X50841437Y-134718216D01*
X50919655Y-134623333D01*
X51067333Y-134623333D01*
X51112023Y-134817937D01*
X51266423Y-134893375D01*
X51341333Y-134897333D01*
X51462398Y-134851607D01*
X51475388Y-134706833D01*
X51401448Y-134559475D01*
X51269805Y-134483833D01*
X51139373Y-134491962D01*
X51069068Y-134595919D01*
X51067333Y-134623333D01*
X50919655Y-134623333D01*
X51000924Y-134524749D01*
X51221878Y-134395220D01*
X51401392Y-134298034D01*
X51488978Y-134218623D01*
X51490666Y-134210768D01*
X51420827Y-134072992D01*
X51265902Y-133963038D01*
X51107783Y-133936884D01*
X51095663Y-133940755D01*
X50995966Y-133944656D01*
X50998809Y-133873658D01*
X51104153Y-133774453D01*
X51256176Y-133728332D01*
X51487875Y-133772935D01*
X51487875Y-133772935D01*
G37*
X51487875Y-133772935D02*
X51647328Y-133966913D01*
X51731514Y-134305106D01*
X51744666Y-134563063D01*
X51744666Y-135037782D01*
X51316873Y-135047526D01*
X51034745Y-135037585D01*
X50883239Y-134985281D01*
X50837732Y-134923460D01*
X50841437Y-134718216D01*
X50919655Y-134623333D01*
X51067333Y-134623333D01*
X51112023Y-134817937D01*
X51266423Y-134893375D01*
X51341333Y-134897333D01*
X51462398Y-134851607D01*
X51475388Y-134706833D01*
X51401448Y-134559475D01*
X51269805Y-134483833D01*
X51139373Y-134491962D01*
X51069068Y-134595919D01*
X51067333Y-134623333D01*
X50919655Y-134623333D01*
X51000924Y-134524749D01*
X51221878Y-134395220D01*
X51401392Y-134298034D01*
X51488978Y-134218623D01*
X51490666Y-134210768D01*
X51420827Y-134072992D01*
X51265902Y-133963038D01*
X51107783Y-133936884D01*
X51095663Y-133940755D01*
X50995966Y-133944656D01*
X50998809Y-133873658D01*
X51104153Y-133774453D01*
X51256176Y-133728332D01*
X51487875Y-133772935D01*
G36*
X50305333Y-133609190D02*
X50376060Y-133692640D01*
X50474666Y-133712000D01*
X50620204Y-133748440D01*
X50622151Y-133827531D01*
X50481589Y-133903929D01*
X50470009Y-133907083D01*
X50369030Y-133954710D01*
X50321972Y-134058667D01*
X50315251Y-134264496D01*
X50321842Y-134403791D01*
X50344755Y-134666959D01*
X50387017Y-134801206D01*
X50467478Y-134846943D01*
X50529614Y-134849196D01*
X50663223Y-134882870D01*
X50668722Y-134955029D01*
X50556673Y-135046984D01*
X50372494Y-135066058D01*
X50194388Y-135017308D01*
X50103581Y-134918500D01*
X50076053Y-134754608D01*
X50051607Y-134489581D01*
X50039989Y-134280909D01*
X50043709Y-133954439D01*
X50093087Y-133748563D01*
X50162781Y-133648933D01*
X50273983Y-133569634D01*
X50305333Y-133609190D01*
X50305333Y-133609190D01*
G37*
X50305333Y-133609190D02*
X50376060Y-133692640D01*
X50474666Y-133712000D01*
X50620204Y-133748440D01*
X50622151Y-133827531D01*
X50481589Y-133903929D01*
X50470009Y-133907083D01*
X50369030Y-133954710D01*
X50321972Y-134058667D01*
X50315251Y-134264496D01*
X50321842Y-134403791D01*
X50344755Y-134666959D01*
X50387017Y-134801206D01*
X50467478Y-134846943D01*
X50529614Y-134849196D01*
X50663223Y-134882870D01*
X50668722Y-134955029D01*
X50556673Y-135046984D01*
X50372494Y-135066058D01*
X50194388Y-135017308D01*
X50103581Y-134918500D01*
X50076053Y-134754608D01*
X50051607Y-134489581D01*
X50039989Y-134280909D01*
X50043709Y-133954439D01*
X50093087Y-133748563D01*
X50162781Y-133648933D01*
X50273983Y-133569634D01*
X50305333Y-133609190D01*
G36*
X49312972Y-133774868D02*
X49336226Y-133804043D01*
X49420757Y-133850299D01*
X49485156Y-133804043D01*
X49645841Y-133722833D01*
X49726942Y-133712000D01*
X49831958Y-133753721D01*
X49823396Y-133846069D01*
X49724442Y-133939819D01*
X49599674Y-133982216D01*
X49497546Y-134015635D01*
X49438202Y-134106095D01*
X49406528Y-134293841D01*
X49391126Y-134537500D01*
X49368697Y-134834827D01*
X49329806Y-134997769D01*
X49263293Y-135061194D01*
X49221793Y-135066557D01*
X49149180Y-135044320D01*
X49105610Y-134955931D01*
X49084121Y-134768665D01*
X49077749Y-134449801D01*
X49077666Y-134389205D01*
X49088110Y-134009122D01*
X49120464Y-133786840D01*
X49176262Y-133712054D01*
X49178503Y-133711981D01*
X49312972Y-133774868D01*
X49312972Y-133774868D01*
G37*
X49312972Y-133774868D02*
X49336226Y-133804043D01*
X49420757Y-133850299D01*
X49485156Y-133804043D01*
X49645841Y-133722833D01*
X49726942Y-133712000D01*
X49831958Y-133753721D01*
X49823396Y-133846069D01*
X49724442Y-133939819D01*
X49599674Y-133982216D01*
X49497546Y-134015635D01*
X49438202Y-134106095D01*
X49406528Y-134293841D01*
X49391126Y-134537500D01*
X49368697Y-134834827D01*
X49329806Y-134997769D01*
X49263293Y-135061194D01*
X49221793Y-135066557D01*
X49149180Y-135044320D01*
X49105610Y-134955931D01*
X49084121Y-134768665D01*
X49077749Y-134449801D01*
X49077666Y-134389205D01*
X49088110Y-134009122D01*
X49120464Y-133786840D01*
X49176262Y-133712054D01*
X49178503Y-133711981D01*
X49312972Y-133774868D01*
G36*
X48611316Y-133838176D02*
X48672727Y-133985464D01*
X48727591Y-134242292D01*
X48759616Y-134507297D01*
X48803198Y-135050242D01*
X48378124Y-135053535D01*
X48123725Y-135045956D01*
X47945928Y-135022971D01*
X47901525Y-135005302D01*
X47861260Y-134888760D01*
X47850000Y-134751901D01*
X47869771Y-134685666D01*
X48104000Y-134685666D01*
X48143686Y-134851647D01*
X48273333Y-134897333D01*
X48406118Y-134847724D01*
X48442666Y-134685666D01*
X48402979Y-134519685D01*
X48273333Y-134474000D01*
X48140548Y-134523608D01*
X48104000Y-134685666D01*
X47869771Y-134685666D01*
X47899463Y-134586200D01*
X48071865Y-134459691D01*
X48146333Y-134426210D01*
X48377531Y-134282205D01*
X48442666Y-134134197D01*
X48410197Y-134004878D01*
X48287487Y-133955094D01*
X48065630Y-133964486D01*
X47953295Y-133960453D01*
X47983228Y-133883678D01*
X48012497Y-133847236D01*
X48201759Y-133731924D01*
X48429948Y-133729903D01*
X48611316Y-133838176D01*
X48611316Y-133838176D01*
G37*
X48611316Y-133838176D02*
X48672727Y-133985464D01*
X48727591Y-134242292D01*
X48759616Y-134507297D01*
X48803198Y-135050242D01*
X48378124Y-135053535D01*
X48123725Y-135045956D01*
X47945928Y-135022971D01*
X47901525Y-135005302D01*
X47861260Y-134888760D01*
X47850000Y-134751901D01*
X47869771Y-134685666D01*
X48104000Y-134685666D01*
X48143686Y-134851647D01*
X48273333Y-134897333D01*
X48406118Y-134847724D01*
X48442666Y-134685666D01*
X48402979Y-134519685D01*
X48273333Y-134474000D01*
X48140548Y-134523608D01*
X48104000Y-134685666D01*
X47869771Y-134685666D01*
X47899463Y-134586200D01*
X48071865Y-134459691D01*
X48146333Y-134426210D01*
X48377531Y-134282205D01*
X48442666Y-134134197D01*
X48410197Y-134004878D01*
X48287487Y-133955094D01*
X48065630Y-133964486D01*
X47953295Y-133960453D01*
X47983228Y-133883678D01*
X48012497Y-133847236D01*
X48201759Y-133731924D01*
X48429948Y-133729903D01*
X48611316Y-133838176D01*
G36*
X45924884Y-133162369D02*
X46043833Y-133261427D01*
X46052456Y-133289623D01*
X46018671Y-133382528D01*
X45852172Y-133415935D01*
X45801266Y-133416623D01*
X45574031Y-133456690D01*
X45493181Y-133573605D01*
X45558597Y-133759302D01*
X45770159Y-134005719D01*
X45810602Y-134043837D01*
X46015328Y-134265695D01*
X46137360Y-134464741D01*
X46156666Y-134545661D01*
X46080073Y-134792379D01*
X45873673Y-134973521D01*
X45572533Y-135062113D01*
X45479333Y-135066666D01*
X45257864Y-135052529D01*
X45159960Y-134995227D01*
X45140666Y-134896615D01*
X45159334Y-134780943D01*
X45246162Y-134794698D01*
X45310292Y-134832498D01*
X45496943Y-134893870D01*
X45627792Y-134845735D01*
X45782492Y-134679464D01*
X45771990Y-134479513D01*
X45596659Y-134247679D01*
X45482980Y-134148445D01*
X45229066Y-133885602D01*
X45142299Y-133636338D01*
X45221589Y-133395027D01*
X45314992Y-133283674D01*
X45500198Y-133173006D01*
X45723584Y-133132733D01*
X45924884Y-133162369D01*
X45924884Y-133162369D01*
G37*
X45924884Y-133162369D02*
X46043833Y-133261427D01*
X46052456Y-133289623D01*
X46018671Y-133382528D01*
X45852172Y-133415935D01*
X45801266Y-133416623D01*
X45574031Y-133456690D01*
X45493181Y-133573605D01*
X45558597Y-133759302D01*
X45770159Y-134005719D01*
X45810602Y-134043837D01*
X46015328Y-134265695D01*
X46137360Y-134464741D01*
X46156666Y-134545661D01*
X46080073Y-134792379D01*
X45873673Y-134973521D01*
X45572533Y-135062113D01*
X45479333Y-135066666D01*
X45257864Y-135052529D01*
X45159960Y-134995227D01*
X45140666Y-134896615D01*
X45159334Y-134780943D01*
X45246162Y-134794698D01*
X45310292Y-134832498D01*
X45496943Y-134893870D01*
X45627792Y-134845735D01*
X45782492Y-134679464D01*
X45771990Y-134479513D01*
X45596659Y-134247679D01*
X45482980Y-134148445D01*
X45229066Y-133885602D01*
X45142299Y-133636338D01*
X45221589Y-133395027D01*
X45314992Y-133283674D01*
X45500198Y-133173006D01*
X45723584Y-133132733D01*
X45924884Y-133162369D01*
G36*
X46733698Y-133781767D02*
X46755492Y-133860166D01*
X46762060Y-134030015D01*
X46771686Y-134291654D01*
X46776659Y-134430195D01*
X46799991Y-134696548D01*
X46855402Y-134834476D01*
X46943900Y-134881686D01*
X47154257Y-134850641D01*
X47295412Y-134684635D01*
X47342000Y-134438233D01*
X47288444Y-134154180D01*
X47134181Y-133995670D01*
X46986399Y-133966000D01*
X46852889Y-133923964D01*
X46859443Y-133833743D01*
X46967924Y-133763391D01*
X47158074Y-133717506D01*
X47309010Y-133775803D01*
X47426666Y-133881333D01*
X47556546Y-134102276D01*
X47596000Y-134425619D01*
X47550260Y-134770657D01*
X47409256Y-134978275D01*
X47167315Y-135054743D01*
X47031956Y-135048996D01*
X46840097Y-135040110D01*
X46763051Y-135100420D01*
X46749333Y-135253001D01*
X46713931Y-135436547D01*
X46601166Y-135490178D01*
X46535272Y-135474827D01*
X46494160Y-135408944D01*
X46473803Y-135263076D01*
X46470173Y-135007767D01*
X46479244Y-134613563D01*
X46479613Y-134601178D01*
X46496663Y-134189026D01*
X46521145Y-133920798D01*
X46557289Y-133771112D01*
X46609324Y-133714589D01*
X46627780Y-133711999D01*
X46733698Y-133781767D01*
X46733698Y-133781767D01*
G37*
X46733698Y-133781767D02*
X46755492Y-133860166D01*
X46762060Y-134030015D01*
X46771686Y-134291654D01*
X46776659Y-134430195D01*
X46799991Y-134696548D01*
X46855402Y-134834476D01*
X46943900Y-134881686D01*
X47154257Y-134850641D01*
X47295412Y-134684635D01*
X47342000Y-134438233D01*
X47288444Y-134154180D01*
X47134181Y-133995670D01*
X46986399Y-133966000D01*
X46852889Y-133923964D01*
X46859443Y-133833743D01*
X46967924Y-133763391D01*
X47158074Y-133717506D01*
X47309010Y-133775803D01*
X47426666Y-133881333D01*
X47556546Y-134102276D01*
X47596000Y-134425619D01*
X47550260Y-134770657D01*
X47409256Y-134978275D01*
X47167315Y-135054743D01*
X47031956Y-135048996D01*
X46840097Y-135040110D01*
X46763051Y-135100420D01*
X46749333Y-135253001D01*
X46713931Y-135436547D01*
X46601166Y-135490178D01*
X46535272Y-135474827D01*
X46494160Y-135408944D01*
X46473803Y-135263076D01*
X46470173Y-135007767D01*
X46479244Y-134613563D01*
X46479613Y-134601178D01*
X46496663Y-134189026D01*
X46521145Y-133920798D01*
X46557289Y-133771112D01*
X46609324Y-133714589D01*
X46627780Y-133711999D01*
X46733698Y-133781767D01*
G36*
X53883816Y-135004860D02*
X53896000Y-135065336D01*
X53851795Y-135181178D01*
X53811333Y-135197333D01*
X53729090Y-135136565D01*
X53726666Y-135117663D01*
X53788210Y-135002996D01*
X53811333Y-134985666D01*
X53883816Y-135004860D01*
X53883816Y-135004860D01*
G37*
X53883816Y-135004860D02*
X53896000Y-135065336D01*
X53851795Y-135181178D01*
X53811333Y-135197333D01*
X53729090Y-135136565D01*
X53726666Y-135117663D01*
X53788210Y-135002996D01*
X53811333Y-134985666D01*
X53883816Y-135004860D01*
G36*
X56511114Y-135096576D02*
X56520666Y-135155000D01*
X56474949Y-135267671D01*
X56436000Y-135282000D01*
X56360885Y-135213423D01*
X56351333Y-135155000D01*
X56397050Y-135042328D01*
X56436000Y-135028000D01*
X56511114Y-135096576D01*
X56511114Y-135096576D01*
G37*
X56511114Y-135096576D02*
X56520666Y-135155000D01*
X56474949Y-135267671D01*
X56436000Y-135282000D01*
X56360885Y-135213423D01*
X56351333Y-135155000D01*
X56397050Y-135042328D01*
X56436000Y-135028000D01*
X56511114Y-135096576D01*
G36*
X53742573Y-135971748D02*
X53792003Y-136247134D01*
X53888745Y-136361212D01*
X53896000Y-136362889D01*
X54035409Y-136320107D01*
X54233651Y-136180671D01*
X54445975Y-135981883D01*
X54627632Y-135761047D01*
X54640147Y-135742572D01*
X54706806Y-135657621D01*
X54727633Y-135694893D01*
X54711088Y-135875483D01*
X54706853Y-135908878D01*
X54664412Y-136239423D01*
X54954237Y-135923007D01*
X55163830Y-135723140D01*
X55306575Y-135669908D01*
X55402775Y-135764763D01*
X55462333Y-135959333D01*
X55523027Y-136151972D01*
X55588678Y-136255261D01*
X55695967Y-136235368D01*
X55859057Y-136127718D01*
X56027321Y-135976263D01*
X56150135Y-135824957D01*
X56182000Y-135740140D01*
X56229301Y-135632372D01*
X56265046Y-135620666D01*
X56307930Y-135696686D01*
X56307792Y-135899612D01*
X56297402Y-135990503D01*
X56287519Y-136280434D01*
X56359026Y-136422759D01*
X56513828Y-136419388D01*
X56651389Y-136345679D01*
X56796254Y-136275900D01*
X56859247Y-136295370D01*
X56859333Y-136297863D01*
X56787003Y-136402324D01*
X56618160Y-136491360D01*
X56425020Y-136535288D01*
X56312365Y-136522673D01*
X56175714Y-136406275D01*
X56111843Y-136292433D01*
X56050025Y-136170647D01*
X55977402Y-136199039D01*
X55934177Y-136248223D01*
X55746737Y-136375593D01*
X55550303Y-136369215D01*
X55401870Y-136238988D01*
X55367573Y-136149833D01*
X55303701Y-135931453D01*
X55229857Y-135850567D01*
X55116608Y-135906317D01*
X54934521Y-136097849D01*
X54901149Y-136136273D01*
X54578386Y-136509666D01*
X54575859Y-136260224D01*
X54573333Y-136010782D01*
X54294135Y-136281391D01*
X54099243Y-136445026D01*
X53934242Y-136541257D01*
X53887735Y-136552000D01*
X53694076Y-136477951D01*
X53573022Y-136296784D01*
X53557333Y-136193865D01*
X53544340Y-136103314D01*
X53480097Y-136106696D01*
X53326707Y-136209524D01*
X53296414Y-136231836D01*
X53139913Y-136339913D01*
X53033022Y-136363621D01*
X52934445Y-136284839D01*
X52802886Y-136085449D01*
X52745103Y-135989944D01*
X52678816Y-135909542D01*
X52608152Y-135931724D01*
X52498378Y-136075356D01*
X52448770Y-136150895D01*
X52284837Y-136377742D01*
X52181118Y-136451758D01*
X52128803Y-136374740D01*
X52118000Y-136218330D01*
X52087826Y-135995988D01*
X52000316Y-135929543D01*
X51859987Y-136017261D01*
X51671355Y-136257406D01*
X51561540Y-136432078D01*
X51474612Y-136528740D01*
X51404661Y-136477572D01*
X51374653Y-136336197D01*
X51381539Y-136119199D01*
X51416143Y-135887211D01*
X51469287Y-135700867D01*
X51531795Y-135620801D01*
X51534357Y-135620666D01*
X51577752Y-135695305D01*
X51567616Y-135894524D01*
X51560342Y-135938166D01*
X51503012Y-136255666D01*
X51701754Y-136001666D01*
X51901252Y-135768070D01*
X52036424Y-135666735D01*
X52127257Y-135683071D01*
X52131944Y-135687692D01*
X52181746Y-135808089D01*
X52217318Y-136001666D01*
X52245000Y-136255666D01*
X52411421Y-135980500D01*
X52579956Y-135767313D01*
X52725674Y-135719593D01*
X52845362Y-135837834D01*
X52876873Y-135908775D01*
X52989748Y-136119256D01*
X53122250Y-136174865D01*
X53293783Y-136076110D01*
X53440494Y-135923506D01*
X53716146Y-135604624D01*
X53742573Y-135971748D01*
X53742573Y-135971748D01*
G37*
X53742573Y-135971748D02*
X53792003Y-136247134D01*
X53888745Y-136361212D01*
X53896000Y-136362889D01*
X54035409Y-136320107D01*
X54233651Y-136180671D01*
X54445975Y-135981883D01*
X54627632Y-135761047D01*
X54640147Y-135742572D01*
X54706806Y-135657621D01*
X54727633Y-135694893D01*
X54711088Y-135875483D01*
X54706853Y-135908878D01*
X54664412Y-136239423D01*
X54954237Y-135923007D01*
X55163830Y-135723140D01*
X55306575Y-135669908D01*
X55402775Y-135764763D01*
X55462333Y-135959333D01*
X55523027Y-136151972D01*
X55588678Y-136255261D01*
X55695967Y-136235368D01*
X55859057Y-136127718D01*
X56027321Y-135976263D01*
X56150135Y-135824957D01*
X56182000Y-135740140D01*
X56229301Y-135632372D01*
X56265046Y-135620666D01*
X56307930Y-135696686D01*
X56307792Y-135899612D01*
X56297402Y-135990503D01*
X56287519Y-136280434D01*
X56359026Y-136422759D01*
X56513828Y-136419388D01*
X56651389Y-136345679D01*
X56796254Y-136275900D01*
X56859247Y-136295370D01*
X56859333Y-136297863D01*
X56787003Y-136402324D01*
X56618160Y-136491360D01*
X56425020Y-136535288D01*
X56312365Y-136522673D01*
X56175714Y-136406275D01*
X56111843Y-136292433D01*
X56050025Y-136170647D01*
X55977402Y-136199039D01*
X55934177Y-136248223D01*
X55746737Y-136375593D01*
X55550303Y-136369215D01*
X55401870Y-136238988D01*
X55367573Y-136149833D01*
X55303701Y-135931453D01*
X55229857Y-135850567D01*
X55116608Y-135906317D01*
X54934521Y-136097849D01*
X54901149Y-136136273D01*
X54578386Y-136509666D01*
X54575859Y-136260224D01*
X54573333Y-136010782D01*
X54294135Y-136281391D01*
X54099243Y-136445026D01*
X53934242Y-136541257D01*
X53887735Y-136552000D01*
X53694076Y-136477951D01*
X53573022Y-136296784D01*
X53557333Y-136193865D01*
X53544340Y-136103314D01*
X53480097Y-136106696D01*
X53326707Y-136209524D01*
X53296414Y-136231836D01*
X53139913Y-136339913D01*
X53033022Y-136363621D01*
X52934445Y-136284839D01*
X52802886Y-136085449D01*
X52745103Y-135989944D01*
X52678816Y-135909542D01*
X52608152Y-135931724D01*
X52498378Y-136075356D01*
X52448770Y-136150895D01*
X52284837Y-136377742D01*
X52181118Y-136451758D01*
X52128803Y-136374740D01*
X52118000Y-136218330D01*
X52087826Y-135995988D01*
X52000316Y-135929543D01*
X51859987Y-136017261D01*
X51671355Y-136257406D01*
X51561540Y-136432078D01*
X51474612Y-136528740D01*
X51404661Y-136477572D01*
X51374653Y-136336197D01*
X51381539Y-136119199D01*
X51416143Y-135887211D01*
X51469287Y-135700867D01*
X51531795Y-135620801D01*
X51534357Y-135620666D01*
X51577752Y-135695305D01*
X51567616Y-135894524D01*
X51560342Y-135938166D01*
X51503012Y-136255666D01*
X51701754Y-136001666D01*
X51901252Y-135768070D01*
X52036424Y-135666735D01*
X52127257Y-135683071D01*
X52131944Y-135687692D01*
X52181746Y-135808089D01*
X52217318Y-136001666D01*
X52245000Y-136255666D01*
X52411421Y-135980500D01*
X52579956Y-135767313D01*
X52725674Y-135719593D01*
X52845362Y-135837834D01*
X52876873Y-135908775D01*
X52989748Y-136119256D01*
X53122250Y-136174865D01*
X53293783Y-136076110D01*
X53440494Y-135923506D01*
X53716146Y-135604624D01*
X53742573Y-135971748D01*
G36*
X41007334Y-138190333D02*
X40965000Y-138232667D01*
X40922667Y-138190333D01*
X40965000Y-138148000D01*
X41007334Y-138190333D01*
X41007334Y-138190333D01*
G37*
X41007334Y-138190333D02*
X40965000Y-138232667D01*
X40922667Y-138190333D01*
X40965000Y-138148000D01*
X41007334Y-138190333D01*
G36*
X42079611Y-131811740D02*
X42434376Y-131858587D01*
X42526403Y-131881252D01*
X42829817Y-132030468D01*
X43144767Y-132284746D01*
X43414982Y-132593988D01*
X43524322Y-132769690D01*
X43644524Y-133066164D01*
X43756997Y-133454046D01*
X43842614Y-133855798D01*
X43882252Y-134193879D01*
X43882984Y-134223884D01*
X43856651Y-134423183D01*
X43738283Y-134535394D01*
X43622275Y-134582703D01*
X43420810Y-134633713D01*
X43290785Y-134632404D01*
X43286618Y-134630183D01*
X43270668Y-134669820D01*
X43315342Y-134821979D01*
X43348434Y-134905829D01*
X43420971Y-135176715D01*
X43470308Y-135549532D01*
X43493472Y-135961513D01*
X43487490Y-136349894D01*
X43449389Y-136651908D01*
X43433814Y-136708667D01*
X43341670Y-136861886D01*
X43160605Y-137074886D01*
X42922055Y-137318961D01*
X42657456Y-137565403D01*
X42398243Y-137785506D01*
X42175853Y-137950564D01*
X42021721Y-138031870D01*
X41983029Y-138033494D01*
X41861210Y-138045317D01*
X41832638Y-138085086D01*
X41783725Y-138135420D01*
X41738833Y-138082480D01*
X41693629Y-137952364D01*
X41632581Y-137705551D01*
X41565770Y-137392678D01*
X41503278Y-137064384D01*
X41455186Y-136771309D01*
X41431575Y-136564090D01*
X41430667Y-136534542D01*
X41474846Y-136419253D01*
X41539837Y-136417207D01*
X41662101Y-136388593D01*
X41850396Y-136271815D01*
X42058479Y-136105469D01*
X42240103Y-135928150D01*
X42349023Y-135778451D01*
X42362000Y-135731060D01*
X42304485Y-135644797D01*
X42256167Y-135647194D01*
X42121237Y-135687085D01*
X41881730Y-135755213D01*
X41663500Y-135816235D01*
X41176667Y-135951397D01*
X41176667Y-136414698D01*
X41159865Y-136704247D01*
X41116655Y-136850669D01*
X41057828Y-136846447D01*
X40994177Y-136684060D01*
X40967410Y-136560500D01*
X40888715Y-136258674D01*
X40780328Y-135970701D01*
X40777563Y-135964790D01*
X40688750Y-135601193D01*
X40713269Y-135185595D01*
X40835247Y-134770776D01*
X41038815Y-134409520D01*
X41308099Y-134154609D01*
X41324917Y-134144480D01*
X41553005Y-134041667D01*
X42616000Y-134041667D01*
X42658334Y-134084000D01*
X42700667Y-134041667D01*
X42658334Y-133999333D01*
X42616000Y-134041667D01*
X41553005Y-134041667D01*
X41580370Y-134029332D01*
X41861187Y-133942889D01*
X42390222Y-133942889D01*
X42401845Y-133993223D01*
X42446667Y-133999333D01*
X42516357Y-133968355D01*
X42503111Y-133942889D01*
X42402632Y-133932756D01*
X42390222Y-133942889D01*
X41861187Y-133942889D01*
X41885760Y-133935325D01*
X41951659Y-133920924D01*
X42319667Y-133848553D01*
X41977736Y-133839276D01*
X41664875Y-133875632D01*
X41347470Y-133978127D01*
X41308485Y-133996877D01*
X40981166Y-134163754D01*
X40091192Y-133510043D01*
X39759801Y-133260741D01*
X39485345Y-133043043D01*
X39293259Y-132877969D01*
X39208975Y-132786535D01*
X39207214Y-132779546D01*
X39279016Y-132690815D01*
X39444599Y-132581344D01*
X39454105Y-132576297D01*
X39697243Y-132447737D01*
X39848818Y-132362866D01*
X39967430Y-132287110D01*
X40091454Y-132200260D01*
X40335763Y-132076830D01*
X40547830Y-132019752D01*
X40822295Y-131961184D01*
X41034012Y-131892659D01*
X41309821Y-131829308D01*
X41681557Y-131802157D01*
X42079611Y-131811740D01*
X42079611Y-131811740D01*
G37*
X42079611Y-131811740D02*
X42434376Y-131858587D01*
X42526403Y-131881252D01*
X42829817Y-132030468D01*
X43144767Y-132284746D01*
X43414982Y-132593988D01*
X43524322Y-132769690D01*
X43644524Y-133066164D01*
X43756997Y-133454046D01*
X43842614Y-133855798D01*
X43882252Y-134193879D01*
X43882984Y-134223884D01*
X43856651Y-134423183D01*
X43738283Y-134535394D01*
X43622275Y-134582703D01*
X43420810Y-134633713D01*
X43290785Y-134632404D01*
X43286618Y-134630183D01*
X43270668Y-134669820D01*
X43315342Y-134821979D01*
X43348434Y-134905829D01*
X43420971Y-135176715D01*
X43470308Y-135549532D01*
X43493472Y-135961513D01*
X43487490Y-136349894D01*
X43449389Y-136651908D01*
X43433814Y-136708667D01*
X43341670Y-136861886D01*
X43160605Y-137074886D01*
X42922055Y-137318961D01*
X42657456Y-137565403D01*
X42398243Y-137785506D01*
X42175853Y-137950564D01*
X42021721Y-138031870D01*
X41983029Y-138033494D01*
X41861210Y-138045317D01*
X41832638Y-138085086D01*
X41783725Y-138135420D01*
X41738833Y-138082480D01*
X41693629Y-137952364D01*
X41632581Y-137705551D01*
X41565770Y-137392678D01*
X41503278Y-137064384D01*
X41455186Y-136771309D01*
X41431575Y-136564090D01*
X41430667Y-136534542D01*
X41474846Y-136419253D01*
X41539837Y-136417207D01*
X41662101Y-136388593D01*
X41850396Y-136271815D01*
X42058479Y-136105469D01*
X42240103Y-135928150D01*
X42349023Y-135778451D01*
X42362000Y-135731060D01*
X42304485Y-135644797D01*
X42256167Y-135647194D01*
X42121237Y-135687085D01*
X41881730Y-135755213D01*
X41663500Y-135816235D01*
X41176667Y-135951397D01*
X41176667Y-136414698D01*
X41159865Y-136704247D01*
X41116655Y-136850669D01*
X41057828Y-136846447D01*
X40994177Y-136684060D01*
X40967410Y-136560500D01*
X40888715Y-136258674D01*
X40780328Y-135970701D01*
X40777563Y-135964790D01*
X40688750Y-135601193D01*
X40713269Y-135185595D01*
X40835247Y-134770776D01*
X41038815Y-134409520D01*
X41308099Y-134154609D01*
X41324917Y-134144480D01*
X41553005Y-134041667D01*
X42616000Y-134041667D01*
X42658334Y-134084000D01*
X42700667Y-134041667D01*
X42658334Y-133999333D01*
X42616000Y-134041667D01*
X41553005Y-134041667D01*
X41580370Y-134029332D01*
X41861187Y-133942889D01*
X42390222Y-133942889D01*
X42401845Y-133993223D01*
X42446667Y-133999333D01*
X42516357Y-133968355D01*
X42503111Y-133942889D01*
X42402632Y-133932756D01*
X42390222Y-133942889D01*
X41861187Y-133942889D01*
X41885760Y-133935325D01*
X41951659Y-133920924D01*
X42319667Y-133848553D01*
X41977736Y-133839276D01*
X41664875Y-133875632D01*
X41347470Y-133978127D01*
X41308485Y-133996877D01*
X40981166Y-134163754D01*
X40091192Y-133510043D01*
X39759801Y-133260741D01*
X39485345Y-133043043D01*
X39293259Y-132877969D01*
X39208975Y-132786535D01*
X39207214Y-132779546D01*
X39279016Y-132690815D01*
X39444599Y-132581344D01*
X39454105Y-132576297D01*
X39697243Y-132447737D01*
X39848818Y-132362866D01*
X39967430Y-132287110D01*
X40091454Y-132200260D01*
X40335763Y-132076830D01*
X40547830Y-132019752D01*
X40822295Y-131961184D01*
X41034012Y-131892659D01*
X41309821Y-131829308D01*
X41681557Y-131802157D01*
X42079611Y-131811740D01*
G36*
X40803913Y-136397864D02*
X40856117Y-136498550D01*
X40898572Y-136697698D01*
X40937251Y-137020947D01*
X40967750Y-137364833D01*
X40988890Y-137742857D01*
X40979884Y-137979975D01*
X40941233Y-138063319D01*
X40940537Y-138063333D01*
X40839127Y-137995999D01*
X40809614Y-137942148D01*
X40767402Y-137764784D01*
X40732656Y-137498052D01*
X40707447Y-137186206D01*
X40693848Y-136873499D01*
X40693933Y-136604187D01*
X40709773Y-136422522D01*
X40735985Y-136370000D01*
X40803913Y-136397864D01*
X40803913Y-136397864D01*
G37*
X40803913Y-136397864D02*
X40856117Y-136498550D01*
X40898572Y-136697698D01*
X40937251Y-137020947D01*
X40967750Y-137364833D01*
X40988890Y-137742857D01*
X40979884Y-137979975D01*
X40941233Y-138063319D01*
X40940537Y-138063333D01*
X40839127Y-137995999D01*
X40809614Y-137942148D01*
X40767402Y-137764784D01*
X40732656Y-137498052D01*
X40707447Y-137186206D01*
X40693848Y-136873499D01*
X40693933Y-136604187D01*
X40709773Y-136422522D01*
X40735985Y-136370000D01*
X40803913Y-136397864D01*
D11*
X68238095Y-133952380D02*
X68238095Y-134666666D01*
X68190476Y-134809523D01*
X68095238Y-134904761D01*
X67952380Y-134952380D01*
X67857142Y-134952380D01*
X68666666Y-134666666D02*
X69142857Y-134666666D01*
X68571428Y-134952380D02*
X68904761Y-133952380D01*
X69238095Y-134952380D01*
X70095238Y-134952380D02*
X69523809Y-134952380D01*
X69809523Y-134952380D02*
X69809523Y-133952380D01*
X69714285Y-134095238D01*
X69619047Y-134190476D01*
X69523809Y-134238095D01*
X90866666Y-133952380D02*
X90866666Y-134666666D01*
X90819047Y-134809523D01*
X90723809Y-134904761D01*
X90580952Y-134952380D01*
X90485714Y-134952380D01*
X91676190Y-134428571D02*
X91819047Y-134476190D01*
X91866666Y-134523809D01*
X91914285Y-134619047D01*
X91914285Y-134761904D01*
X91866666Y-134857142D01*
X91819047Y-134904761D01*
X91723809Y-134952380D01*
X91342857Y-134952380D01*
X91342857Y-133952380D01*
X91676190Y-133952380D01*
X91771428Y-134000000D01*
X91819047Y-134047619D01*
X91866666Y-134142857D01*
X91866666Y-134238095D01*
X91819047Y-134333333D01*
X91771428Y-134380952D01*
X91676190Y-134428571D01*
X91342857Y-134428571D01*
X92866666Y-134952380D02*
X92295238Y-134952380D01*
X92580952Y-134952380D02*
X92580952Y-133952380D01*
X92485714Y-134095238D01*
X92390476Y-134190476D01*
X92295238Y-134238095D01*
X69866666Y-81952380D02*
X69866666Y-82666666D01*
X69819047Y-82809523D01*
X69723809Y-82904761D01*
X69580952Y-82952380D01*
X69485714Y-82952380D01*
X70914285Y-82857142D02*
X70866666Y-82904761D01*
X70723809Y-82952380D01*
X70628571Y-82952380D01*
X70485714Y-82904761D01*
X70390476Y-82809523D01*
X70342857Y-82714285D01*
X70295238Y-82523809D01*
X70295238Y-82380952D01*
X70342857Y-82190476D01*
X70390476Y-82095238D01*
X70485714Y-82000000D01*
X70628571Y-81952380D01*
X70723809Y-81952380D01*
X70866666Y-82000000D01*
X70914285Y-82047619D01*
X71866666Y-82952380D02*
X71295238Y-82952380D01*
X71580952Y-82952380D02*
X71580952Y-81952380D01*
X71485714Y-82095238D01*
X71390476Y-82190476D01*
X71295238Y-82238095D01*
X74166666Y-81952380D02*
X74166666Y-82666666D01*
X74119047Y-82809523D01*
X74023809Y-82904761D01*
X73880952Y-82952380D01*
X73785714Y-82952380D01*
X74642857Y-82952380D02*
X74642857Y-81952380D01*
X74880952Y-81952380D01*
X75023809Y-82000000D01*
X75119047Y-82095238D01*
X75166666Y-82190476D01*
X75214285Y-82380952D01*
X75214285Y-82523809D01*
X75166666Y-82714285D01*
X75119047Y-82809523D01*
X75023809Y-82904761D01*
X74880952Y-82952380D01*
X74642857Y-82952380D01*
X76166666Y-82952380D02*
X75595238Y-82952380D01*
X75880952Y-82952380D02*
X75880952Y-81952380D01*
X75785714Y-82095238D01*
X75690476Y-82190476D01*
X75595238Y-82238095D01*
X97014285Y-81952380D02*
X97014285Y-82666666D01*
X96966666Y-82809523D01*
X96871428Y-82904761D01*
X96728571Y-82952380D01*
X96633333Y-82952380D01*
X97490476Y-82428571D02*
X97823809Y-82428571D01*
X97966666Y-82952380D02*
X97490476Y-82952380D01*
X97490476Y-81952380D01*
X97966666Y-81952380D01*
X98919047Y-82952380D02*
X98347619Y-82952380D01*
X98633333Y-82952380D02*
X98633333Y-81952380D01*
X98538095Y-82095238D01*
X98442857Y-82190476D01*
X98347619Y-82238095D01*
%LPC*%
D14*
X118880000Y-126300000D03*
X116340000Y-126300000D03*
X113800000Y-126300000D03*
X111260000Y-126300000D03*
X108720000Y-126300000D03*
X106180000Y-126300000D03*
X103640000Y-126300000D03*
X101100000Y-126300000D03*
X98560000Y-126300000D03*
X96020000Y-126300000D03*
X93480000Y-126300000D03*
X90940000Y-126300000D03*
X88400000Y-126300000D03*
X85860000Y-126300000D03*
X83320000Y-126300000D03*
X80780000Y-126300000D03*
X78240000Y-126300000D03*
X75700000Y-126300000D03*
X73160000Y-126300000D03*
X70620000Y-126300000D03*
X68080000Y-126300000D03*
X65540000Y-126300000D03*
X63000000Y-126300000D03*
X60460000Y-126300000D03*
X57920000Y-126300000D03*
X55380000Y-126300000D03*
X52840000Y-126300000D03*
X50300000Y-126300000D03*
X47760000Y-126300000D03*
X45220000Y-126300000D03*
X42680000Y-126300000D03*
X40140000Y-126300000D03*
X37600000Y-126300000D03*
X35060000Y-126300000D03*
X118880000Y-123760000D03*
X116340000Y-123760000D03*
X113800000Y-123760000D03*
X111260000Y-123760000D03*
X108720000Y-123760000D03*
X106180000Y-123760000D03*
X103640000Y-123760000D03*
X101100000Y-123760000D03*
X98560000Y-123760000D03*
X96020000Y-123760000D03*
X93480000Y-123760000D03*
X90940000Y-123760000D03*
X88400000Y-123760000D03*
X85860000Y-123760000D03*
X83320000Y-123760000D03*
X80780000Y-123760000D03*
X78240000Y-123760000D03*
X75700000Y-123760000D03*
X73160000Y-123760000D03*
X70620000Y-123760000D03*
X68080000Y-123760000D03*
X65540000Y-123760000D03*
X63000000Y-123760000D03*
X60460000Y-123760000D03*
X57920000Y-123760000D03*
X55380000Y-123760000D03*
X52840000Y-123760000D03*
X50300000Y-123760000D03*
X47760000Y-123760000D03*
X45220000Y-123760000D03*
X42680000Y-123760000D03*
X40140000Y-123760000D03*
X37600000Y-123760000D03*
X35060000Y-123760000D03*
X118880000Y-121220000D03*
X116340000Y-121220000D03*
X113800000Y-121220000D03*
X111260000Y-121220000D03*
X108720000Y-121220000D03*
X106180000Y-121220000D03*
X103640000Y-121220000D03*
X101100000Y-121220000D03*
X98560000Y-121220000D03*
X96020000Y-121220000D03*
X93480000Y-121220000D03*
X90940000Y-121220000D03*
X88400000Y-121220000D03*
X85860000Y-121220000D03*
X83320000Y-121220000D03*
X80780000Y-121220000D03*
X78240000Y-121220000D03*
X75700000Y-121220000D03*
X73160000Y-121220000D03*
X70620000Y-121220000D03*
X68080000Y-121220000D03*
X65540000Y-121220000D03*
X63000000Y-121220000D03*
X60460000Y-121220000D03*
X57920000Y-121220000D03*
X55380000Y-121220000D03*
X52840000Y-121220000D03*
X50300000Y-121220000D03*
X47760000Y-121220000D03*
X45220000Y-121220000D03*
X42680000Y-121220000D03*
X40140000Y-121220000D03*
X37600000Y-121220000D03*
X35060000Y-121220000D03*
X118880000Y-118680000D03*
X116340000Y-118680000D03*
X113800000Y-118680000D03*
X111260000Y-118680000D03*
X108720000Y-118680000D03*
X106180000Y-118680000D03*
X103640000Y-118680000D03*
X101100000Y-118680000D03*
X98560000Y-118680000D03*
X96020000Y-118680000D03*
X93480000Y-118680000D03*
X90940000Y-118680000D03*
X88400000Y-118680000D03*
X85860000Y-118680000D03*
X83320000Y-118680000D03*
X80780000Y-118680000D03*
X78240000Y-118680000D03*
X75700000Y-118680000D03*
X73160000Y-118680000D03*
X70620000Y-118680000D03*
X68080000Y-118680000D03*
X65540000Y-118680000D03*
X63000000Y-118680000D03*
X60460000Y-118680000D03*
X57920000Y-118680000D03*
X55380000Y-118680000D03*
X52840000Y-118680000D03*
X50300000Y-118680000D03*
X47760000Y-118680000D03*
X45220000Y-118680000D03*
X42680000Y-118680000D03*
X40140000Y-118680000D03*
X37600000Y-118680000D03*
X35060000Y-118680000D03*
X118880000Y-116140000D03*
X116340000Y-116140000D03*
X113800000Y-116140000D03*
X111260000Y-116140000D03*
X108720000Y-116140000D03*
X106180000Y-116140000D03*
X103640000Y-116140000D03*
X101100000Y-116140000D03*
X98560000Y-116140000D03*
X96020000Y-116140000D03*
X93480000Y-116140000D03*
X90940000Y-116140000D03*
X88400000Y-116140000D03*
X85860000Y-116140000D03*
X83320000Y-116140000D03*
X80780000Y-116140000D03*
X78240000Y-116140000D03*
X75700000Y-116140000D03*
X73160000Y-116140000D03*
X70620000Y-116140000D03*
X68080000Y-116140000D03*
X65540000Y-116140000D03*
X63000000Y-116140000D03*
X60460000Y-116140000D03*
X57920000Y-116140000D03*
X55380000Y-116140000D03*
X52840000Y-116140000D03*
X50300000Y-116140000D03*
X47760000Y-116140000D03*
X45220000Y-116140000D03*
X42680000Y-116140000D03*
X40140000Y-116140000D03*
X37600000Y-116140000D03*
X35060000Y-116140000D03*
X118880000Y-113600000D03*
X116340000Y-113600000D03*
X113800000Y-113600000D03*
X111260000Y-113600000D03*
X108720000Y-113600000D03*
X106180000Y-113600000D03*
X103640000Y-113600000D03*
X101100000Y-113600000D03*
X98560000Y-113600000D03*
X96020000Y-113600000D03*
X93480000Y-113600000D03*
X90940000Y-113600000D03*
X88400000Y-113600000D03*
X85860000Y-113600000D03*
X83320000Y-113600000D03*
X80780000Y-113600000D03*
X78240000Y-113600000D03*
X75700000Y-113600000D03*
X73160000Y-113600000D03*
X70620000Y-113600000D03*
X68080000Y-113600000D03*
X65540000Y-113600000D03*
X63000000Y-113600000D03*
X60460000Y-113600000D03*
X57920000Y-113600000D03*
X55380000Y-113600000D03*
X52840000Y-113600000D03*
X50300000Y-113600000D03*
X47760000Y-113600000D03*
X45220000Y-113600000D03*
X42680000Y-113600000D03*
X40140000Y-113600000D03*
X37600000Y-113600000D03*
X35060000Y-113600000D03*
X118880000Y-111060000D03*
X116340000Y-111060000D03*
X113800000Y-111060000D03*
X111260000Y-111060000D03*
X108720000Y-111060000D03*
X106180000Y-111060000D03*
X103640000Y-111060000D03*
X101100000Y-111060000D03*
X98560000Y-111060000D03*
X96020000Y-111060000D03*
X93480000Y-111060000D03*
X90940000Y-111060000D03*
X88400000Y-111060000D03*
X85860000Y-111060000D03*
X83320000Y-111060000D03*
X80780000Y-111060000D03*
X78240000Y-111060000D03*
X75700000Y-111060000D03*
X73160000Y-111060000D03*
X70620000Y-111060000D03*
X68080000Y-111060000D03*
X65540000Y-111060000D03*
X63000000Y-111060000D03*
X60460000Y-111060000D03*
X57920000Y-111060000D03*
X55380000Y-111060000D03*
X52840000Y-111060000D03*
X50300000Y-111060000D03*
X47760000Y-111060000D03*
X45220000Y-111060000D03*
X42680000Y-111060000D03*
X40140000Y-111060000D03*
X37600000Y-111060000D03*
X35060000Y-111060000D03*
X118880000Y-108520000D03*
X116340000Y-108520000D03*
X113800000Y-108520000D03*
X111260000Y-108520000D03*
X108720000Y-108520000D03*
X106180000Y-108520000D03*
X103640000Y-108520000D03*
X101100000Y-108520000D03*
X98560000Y-108520000D03*
X96020000Y-108520000D03*
X93480000Y-108520000D03*
X90940000Y-108520000D03*
X88400000Y-108520000D03*
X85860000Y-108520000D03*
X83320000Y-108520000D03*
X80780000Y-108520000D03*
X78240000Y-108520000D03*
X75700000Y-108520000D03*
X73160000Y-108520000D03*
X70620000Y-108520000D03*
X68080000Y-108520000D03*
X65540000Y-108520000D03*
X63000000Y-108520000D03*
X60460000Y-108520000D03*
X57920000Y-108520000D03*
X55380000Y-108520000D03*
X52840000Y-108520000D03*
X50300000Y-108520000D03*
X47760000Y-108520000D03*
X45220000Y-108520000D03*
X42680000Y-108520000D03*
X40140000Y-108520000D03*
X37600000Y-108520000D03*
X35060000Y-108520000D03*
X118880000Y-105980000D03*
X116340000Y-105980000D03*
X113800000Y-105980000D03*
X111260000Y-105980000D03*
X108720000Y-105980000D03*
X106180000Y-105980000D03*
X103640000Y-105980000D03*
X101100000Y-105980000D03*
X98560000Y-105980000D03*
X96020000Y-105980000D03*
X93480000Y-105980000D03*
X90940000Y-105980000D03*
X88400000Y-105980000D03*
X85860000Y-105980000D03*
X83320000Y-105980000D03*
X80780000Y-105980000D03*
X78240000Y-105980000D03*
X75700000Y-105980000D03*
X73160000Y-105980000D03*
X70620000Y-105980000D03*
X68080000Y-105980000D03*
X65540000Y-105980000D03*
X63000000Y-105980000D03*
X60460000Y-105980000D03*
X57920000Y-105980000D03*
X55380000Y-105980000D03*
X52840000Y-105980000D03*
X50300000Y-105980000D03*
X47760000Y-105980000D03*
X45220000Y-105980000D03*
X42680000Y-105980000D03*
X40140000Y-105980000D03*
X37600000Y-105980000D03*
X35060000Y-105980000D03*
X118880000Y-103440000D03*
X116340000Y-103440000D03*
X113800000Y-103440000D03*
X111260000Y-103440000D03*
X108720000Y-103440000D03*
X106180000Y-103440000D03*
X103640000Y-103440000D03*
X101100000Y-103440000D03*
X98560000Y-103440000D03*
X96020000Y-103440000D03*
X93480000Y-103440000D03*
X90940000Y-103440000D03*
X88400000Y-103440000D03*
X85860000Y-103440000D03*
X83320000Y-103440000D03*
X80780000Y-103440000D03*
X78240000Y-103440000D03*
X75700000Y-103440000D03*
X73160000Y-103440000D03*
X70620000Y-103440000D03*
X68080000Y-103440000D03*
X65540000Y-103440000D03*
X63000000Y-103440000D03*
X60460000Y-103440000D03*
X57920000Y-103440000D03*
X55380000Y-103440000D03*
X52840000Y-103440000D03*
X50300000Y-103440000D03*
X47760000Y-103440000D03*
X45220000Y-103440000D03*
X42680000Y-103440000D03*
X40140000Y-103440000D03*
X37600000Y-103440000D03*
X35060000Y-103440000D03*
X118880000Y-100900000D03*
X116340000Y-100900000D03*
X113800000Y-100900000D03*
X111260000Y-100900000D03*
X108720000Y-100900000D03*
X106180000Y-100900000D03*
X103640000Y-100900000D03*
X101100000Y-100900000D03*
X98560000Y-100900000D03*
X96020000Y-100900000D03*
X93480000Y-100900000D03*
X90940000Y-100900000D03*
X88400000Y-100900000D03*
X85860000Y-100900000D03*
X83320000Y-100900000D03*
X80780000Y-100900000D03*
X78240000Y-100900000D03*
X75700000Y-100900000D03*
X73160000Y-100900000D03*
X70620000Y-100900000D03*
X68080000Y-100900000D03*
X65540000Y-100900000D03*
X63000000Y-100900000D03*
X60460000Y-100900000D03*
X57920000Y-100900000D03*
X55380000Y-100900000D03*
X52840000Y-100900000D03*
X50300000Y-100900000D03*
X47760000Y-100900000D03*
X45220000Y-100900000D03*
X42680000Y-100900000D03*
X40140000Y-100900000D03*
X37600000Y-100900000D03*
X35060000Y-100900000D03*
X118880000Y-98360000D03*
X116340000Y-98360000D03*
X113800000Y-98360000D03*
X111260000Y-98360000D03*
X108720000Y-98360000D03*
X106180000Y-98360000D03*
X103640000Y-98360000D03*
X101100000Y-98360000D03*
X98560000Y-98360000D03*
X96020000Y-98360000D03*
X93480000Y-98360000D03*
X90940000Y-98360000D03*
X88400000Y-98360000D03*
X85860000Y-98360000D03*
X83320000Y-98360000D03*
X80780000Y-98360000D03*
X78240000Y-98360000D03*
X75700000Y-98360000D03*
X73160000Y-98360000D03*
X70620000Y-98360000D03*
X68080000Y-98360000D03*
X65540000Y-98360000D03*
X63000000Y-98360000D03*
X60460000Y-98360000D03*
X57920000Y-98360000D03*
X55380000Y-98360000D03*
X52840000Y-98360000D03*
X50300000Y-98360000D03*
X47760000Y-98360000D03*
X45220000Y-98360000D03*
X42680000Y-98360000D03*
X40140000Y-98360000D03*
X37600000Y-98360000D03*
X35060000Y-98360000D03*
X118880000Y-95820000D03*
X116340000Y-95820000D03*
X113800000Y-95820000D03*
X111260000Y-95820000D03*
X108720000Y-95820000D03*
X106180000Y-95820000D03*
X103640000Y-95820000D03*
X101100000Y-95820000D03*
X98560000Y-95820000D03*
X96020000Y-95820000D03*
X93480000Y-95820000D03*
X90940000Y-95820000D03*
X88400000Y-95820000D03*
X85860000Y-95820000D03*
X83320000Y-95820000D03*
X80780000Y-95820000D03*
X78240000Y-95820000D03*
X75700000Y-95820000D03*
X73160000Y-95820000D03*
X70620000Y-95820000D03*
X68080000Y-95820000D03*
X65540000Y-95820000D03*
X63000000Y-95820000D03*
X60460000Y-95820000D03*
X57920000Y-95820000D03*
X55380000Y-95820000D03*
X52840000Y-95820000D03*
X50300000Y-95820000D03*
X47760000Y-95820000D03*
X45220000Y-95820000D03*
X42680000Y-95820000D03*
X40140000Y-95820000D03*
X37600000Y-95820000D03*
X35060000Y-95820000D03*
X118880000Y-93280000D03*
X116340000Y-93280000D03*
X113800000Y-93280000D03*
X111260000Y-93280000D03*
X108720000Y-93280000D03*
X106180000Y-93280000D03*
X103640000Y-93280000D03*
X101100000Y-93280000D03*
X98560000Y-93280000D03*
X96020000Y-93280000D03*
X93480000Y-93280000D03*
X90940000Y-93280000D03*
X88400000Y-93280000D03*
X85860000Y-93280000D03*
X83320000Y-93280000D03*
X80780000Y-93280000D03*
X78240000Y-93280000D03*
X75700000Y-93280000D03*
X73160000Y-93280000D03*
X70620000Y-93280000D03*
X68080000Y-93280000D03*
X65540000Y-93280000D03*
X63000000Y-93280000D03*
X60460000Y-93280000D03*
X57920000Y-93280000D03*
X55380000Y-93280000D03*
X52840000Y-93280000D03*
X50300000Y-93280000D03*
X47760000Y-93280000D03*
X45220000Y-93280000D03*
X42680000Y-93280000D03*
X40140000Y-93280000D03*
X37600000Y-93280000D03*
X35060000Y-93280000D03*
X118880000Y-90740000D03*
X116340000Y-90740000D03*
X113800000Y-90740000D03*
X111260000Y-90740000D03*
X108720000Y-90740000D03*
X106180000Y-90740000D03*
X103640000Y-90740000D03*
X101100000Y-90740000D03*
X98560000Y-90740000D03*
X96020000Y-90740000D03*
X93480000Y-90740000D03*
X90940000Y-90740000D03*
X88400000Y-90740000D03*
X85860000Y-90740000D03*
X83320000Y-90740000D03*
X80780000Y-90740000D03*
X78240000Y-90740000D03*
X75700000Y-90740000D03*
X73160000Y-90740000D03*
X70620000Y-90740000D03*
X68080000Y-90740000D03*
X65540000Y-90740000D03*
X63000000Y-90740000D03*
X60460000Y-90740000D03*
X57920000Y-90740000D03*
X55380000Y-90740000D03*
X52840000Y-90740000D03*
X50300000Y-90740000D03*
X47760000Y-90740000D03*
X45220000Y-90740000D03*
X42680000Y-90740000D03*
X40140000Y-90740000D03*
X37600000Y-90740000D03*
D15*
X84503500Y-134543500D03*
D16*
X84503500Y-132003500D03*
D15*
X81963500Y-134543500D03*
X81963500Y-132003500D03*
X79423500Y-134543500D03*
X79423500Y-132003500D03*
X76883500Y-134543500D03*
X76883500Y-132003500D03*
X74343500Y-134543500D03*
X74343500Y-132003500D03*
X71803500Y-134543500D03*
D17*
X71803500Y-132003500D03*
X94803500Y-132003500D03*
D15*
X94803500Y-134543500D03*
X97343500Y-132003500D03*
X97343500Y-134543500D03*
X99883500Y-132003500D03*
X99883500Y-134543500D03*
X102423500Y-132003500D03*
X102423500Y-134543500D03*
X104963500Y-132003500D03*
X104963500Y-134543500D03*
D16*
X107503500Y-132003500D03*
D15*
X107503500Y-134543500D03*
D17*
X67696500Y-84996500D03*
D15*
X67696500Y-82456500D03*
X65156500Y-84996500D03*
X65156500Y-82456500D03*
X62616500Y-84996500D03*
X62616500Y-82456500D03*
X60076500Y-84996500D03*
X60076500Y-82456500D03*
X57536500Y-84996500D03*
X57536500Y-82456500D03*
D16*
X54996500Y-84996500D03*
D15*
X54996500Y-82456500D03*
D17*
X90696500Y-84996500D03*
D15*
X90696500Y-82456500D03*
X88156500Y-84996500D03*
X88156500Y-82456500D03*
X85616500Y-84996500D03*
X85616500Y-82456500D03*
X83076500Y-84996500D03*
X83076500Y-82456500D03*
X80536500Y-84996500D03*
X80536500Y-82456500D03*
D16*
X77996500Y-84996500D03*
D15*
X77996500Y-82456500D03*
X100996500Y-82456500D03*
D16*
X100996500Y-84996500D03*
D15*
X103536500Y-82456500D03*
X103536500Y-84996500D03*
X106076500Y-82456500D03*
X106076500Y-84996500D03*
X108616500Y-82456500D03*
X108616500Y-84996500D03*
X111156500Y-82456500D03*
X111156500Y-84996500D03*
X113696500Y-82456500D03*
D17*
X113696500Y-84996500D03*
D18*
X119500000Y-137000000D03*
X119500000Y-80000000D03*
X34500000Y-80000000D03*
X34500000Y-137000000D03*
D14*
X35060000Y-90740000D03*
X118880000Y-128840000D03*
X116340000Y-128840000D03*
X113800000Y-128840000D03*
X111260000Y-128840000D03*
X108720000Y-128840000D03*
X106180000Y-128840000D03*
X103640000Y-128840000D03*
X101100000Y-128840000D03*
X98560000Y-128840000D03*
X96020000Y-128840000D03*
X93480000Y-128840000D03*
X90940000Y-128840000D03*
X88400000Y-128840000D03*
X85860000Y-128840000D03*
X83320000Y-128840000D03*
X80780000Y-128840000D03*
X78240000Y-128840000D03*
X75700000Y-128840000D03*
X73160000Y-128840000D03*
X70620000Y-128840000D03*
X68080000Y-128840000D03*
X65540000Y-128840000D03*
X63000000Y-128840000D03*
X60460000Y-128840000D03*
X57920000Y-128840000D03*
X55380000Y-128840000D03*
X52840000Y-128840000D03*
X50300000Y-128840000D03*
X47760000Y-128840000D03*
X45220000Y-128840000D03*
X42680000Y-128840000D03*
X40140000Y-128840000D03*
X37600000Y-128840000D03*
X35060000Y-128840000D03*
X35060000Y-88200000D03*
X37600000Y-88200000D03*
X40140000Y-88200000D03*
X42680000Y-88200000D03*
X45220000Y-88200000D03*
X47760000Y-88200000D03*
X50300000Y-88200000D03*
X52840000Y-88200000D03*
X55380000Y-88200000D03*
X57920000Y-88200000D03*
X60460000Y-88200000D03*
X63000000Y-88200000D03*
X65540000Y-88200000D03*
X68080000Y-88200000D03*
X70620000Y-88200000D03*
X73160000Y-88200000D03*
X75700000Y-88200000D03*
X78240000Y-88200000D03*
X80780000Y-88200000D03*
X83320000Y-88200000D03*
X85860000Y-88200000D03*
X88400000Y-88200000D03*
X90940000Y-88200000D03*
X93480000Y-88200000D03*
X96020000Y-88200000D03*
X98560000Y-88200000D03*
X101100000Y-88200000D03*
X103640000Y-88200000D03*
X106180000Y-88200000D03*
X108720000Y-88200000D03*
X111260000Y-88200000D03*
X113800000Y-88200000D03*
X116340000Y-88200000D03*
X118880000Y-88200000D03*
M02*
